<svg width="72" height="72" viewBox="0 0 72 72" fill="none" xmlns="http://www.w3.org/2000/svg">
<path d="M-5.55506e-06 36C-3.8169e-06 16.1177 16.1177 9.55873e-07 36 2.69403e-06C55.8823 4.4322e-06 72 16.1178 72 36C72 55.8823 55.8822 72 36 72C16.1177 72 -7.29322e-06 55.8822 -5.55506e-06 36Z" fill="url(#paint0_linear_2101_55918)"/>
<path d="M10.9338 29.9865C11.226 30.1195 11.4608 30.2979 11.6384 30.5218C11.8159 30.7456 11.936 30.9978 11.9988 31.2785C12.0616 31.5591 12.0707 31.859 12.0262 32.178C11.9611 32.6447 11.8069 33.0359 11.5638 33.3515C11.3214 33.6624 11.0062 33.8854 10.6184 34.0207C10.2312 34.1511 9.78521 34.1811 9.28041 34.1106C8.77562 34.0402 8.35488 33.8892 8.01821 33.6577C7.68221 33.4215 7.44017 33.1207 7.29211 32.7553C7.14472 32.3852 7.10293 31.9715 7.16674 31.5144C7.21193 31.1905 7.29805 30.904 7.42509 30.6547C7.54737 30.4047 7.714 30.2022 7.92498 30.0472C8.13187 29.8867 8.37702 29.7826 8.66043 29.7347L8.9144 30.6805C8.61737 30.7216 8.39769 30.8171 8.25537 30.9672C8.10829 31.1166 8.01647 31.3222 7.97991 31.5842C7.94402 31.8413 7.97436 32.0762 8.07092 32.2887C8.16815 32.4965 8.3309 32.6697 8.55915 32.8084C8.78263 32.9464 9.07058 33.04 9.42298 33.0891C9.77063 33.1377 10.0725 33.1313 10.3287 33.0699C10.5855 33.0038 10.7891 32.8841 10.9396 32.7109C11.09 32.5377 11.1844 32.313 11.223 32.0368C11.2589 31.7797 11.2207 31.5486 11.1086 31.3436C10.997 31.1338 10.8061 30.9712 10.5358 30.8558L10.9338 29.9865Z" fill="white"/>
<path d="M9.49993 23.8023C9.69636 23.374 9.95533 23.0457 10.2768 22.8176C10.5983 22.5894 10.9633 22.4685 11.3716 22.4547C11.7819 22.4366 12.2188 22.5338 12.6821 22.7462C13.1454 22.9587 13.504 23.2263 13.758 23.5491C14.014 23.8675 14.1605 24.223 14.1974 24.6155C14.2343 25.008 14.1545 25.4184 13.9581 25.8467C13.7616 26.275 13.5017 26.6055 13.1782 26.838C12.8567 27.0661 12.4907 27.1893 12.0804 27.2074C11.672 27.2211 11.2362 27.1218 10.7729 26.9093C10.3096 26.6969 9.94998 26.4314 9.69397 26.113C9.43997 25.7902 9.29452 25.4326 9.25763 25.0401C9.22274 24.6432 9.30351 24.2306 9.49993 23.8023ZM10.2408 24.142C10.1305 24.3824 10.0921 24.6161 10.1256 24.843C10.1611 25.0656 10.2692 25.2739 10.45 25.4679C10.6329 25.6575 10.8838 25.8255 11.2029 25.9718C11.5219 26.1181 11.8129 26.1987 12.0759 26.2135C12.3409 26.2239 12.5693 26.17 12.7612 26.0516C12.955 25.9289 13.107 25.7474 13.2172 25.507C13.3275 25.2666 13.3649 25.0351 13.3294 24.8125C13.2939 24.59 13.1848 24.3839 13.0019 24.1942C12.8211 24.0002 12.5712 23.8301 12.2521 23.6837C11.9331 23.5374 11.641 23.459 11.376 23.4486C11.113 23.4338 10.8856 23.4856 10.6938 23.6039C10.502 23.7223 10.351 23.9016 10.2408 24.142Z" fill="white"/>
<path d="M15.6032 15.1326L19.1935 18.2584L18.4452 19.1179L15.2405 18.5369L14.3831 18.3355L14.3783 18.3409L15.0174 18.8591L17.0954 20.6682L16.5082 21.3428L12.9179 18.217L13.6614 17.363L16.8607 17.9392L17.7236 18.1453L17.733 18.1345L17.0939 17.6163L15.0159 15.8072L15.6032 15.1326Z" fill="white"/>
<path d="M21.7452 10.5438L22.1921 11.208L20.8697 12.0979L23.0803 15.3831L22.2546 15.9387L20.0439 12.6536L18.7155 13.5475L18.2685 12.8833L21.7452 10.5438Z" fill="white"/>
<path d="M25.8137 13.8061L25.883 8.7388L27.0064 8.34594L30.2186 12.2656L29.245 12.6061L27.1479 9.90867L26.7056 9.29928L26.692 9.30404L26.7347 10.0379L26.7736 13.4703L25.8137 13.8061ZM26.3971 12.3718L26.1542 11.6774L28.6188 10.8155L28.8617 11.5099L26.3971 12.3718Z" fill="white"/>
<path d="M36.8454 10.2895C36.7732 10.6023 36.6451 10.8679 36.4611 11.0865C36.2771 11.305 36.0538 11.473 35.7913 11.5904C35.5288 11.7077 35.2367 11.7764 34.9152 11.7963C34.4448 11.8253 34.0308 11.7522 33.6731 11.5767C33.3202 11.401 33.0389 11.1366 32.8292 10.7834C32.6243 10.43 32.5061 9.99887 32.4747 9.49015C32.4432 8.98143 32.5074 8.53907 32.6672 8.16306C32.8319 7.78675 33.0785 7.48968 33.407 7.27185C33.7404 7.05372 34.1375 6.93042 34.5982 6.90194C34.9245 6.88177 35.2225 6.90912 35.4921 6.98399C35.7614 7.05406 35.993 7.17704 36.187 7.35294C36.3854 7.52374 36.5363 7.74325 36.6396 8.01147L35.7633 8.44863C35.6639 8.16571 35.5265 7.96946 35.3511 7.85986C35.1755 7.74546 34.9556 7.69642 34.6917 7.71274C34.4325 7.72876 34.2084 7.80524 34.0194 7.94218C33.8351 8.07883 33.6977 8.27279 33.6073 8.52408C33.5165 8.77057 33.4821 9.07138 33.5041 9.42652C33.5257 9.77687 33.5921 10.0715 33.7032 10.3103C33.8192 10.5488 33.977 10.7245 34.1766 10.8374C34.3763 10.9504 34.6153 10.9982 34.8937 10.981C35.1528 10.965 35.3717 10.8816 35.5503 10.7309C35.7336 10.5798 35.855 10.3603 35.9143 10.0724L36.8454 10.2895Z" fill="white"/>
<path d="M44.1667 8.02177L44.0047 8.8058L42.4436 8.48327L41.6424 12.3611L40.6677 12.1597L41.4689 8.28187L39.9008 7.95788L40.0628 7.17384L44.1667 8.02177Z" fill="white"/>
<path d="M45.2771 13.4952L47.3891 9.22904L50.5887 10.8131L50.2335 11.5305L47.9259 10.3881L47.4011 11.4482L49.2175 12.3474L48.8783 13.0326L47.0619 12.1334L46.5243 13.2193L48.9224 14.4065L48.5672 15.124L45.2771 13.4952Z" fill="white"/>
<path d="M50.292 16.2466L54.7376 13.8138L55.6323 14.5985L53.8004 19.3235L53.0249 18.6435L54.3415 15.4906L54.6544 14.8057L54.6435 14.7962L54.0256 15.1944L51.0566 16.9171L50.292 16.2466ZM51.8277 16.0488L52.3127 15.4957L54.2757 17.2173L53.7906 17.7704L51.8277 16.0488Z" fill="white"/>
<path d="M55.9608 21.3758L56.1486 21.0336L57.9988 23.805L57.339 24.2455L55.1403 20.9523L55.7642 20.5358L60.4335 21.1128L60.2417 21.449L58.4716 18.7976L59.1315 18.3571L61.25 21.5304L60.6261 21.9469L55.9608 21.3758Z" fill="white"/>
<path d="M58.2777 26.0846L63.3438 26.2112L63.724 27.339L59.7683 30.5067L59.4388 29.5293L62.1597 27.4628L62.7741 27.0274L62.7695 27.0137L62.0352 27.0482L58.6025 27.0483L58.2777 26.0846ZM59.7052 26.6842L60.4023 26.4492L61.2364 28.9234L60.5392 29.1584L59.7052 26.6842ZM65.4073 27.3652C65.0792 27.4758 64.7834 27.4639 64.5199 27.3294C64.2625 27.198 64.077 26.9637 63.9633 26.6265C63.8512 26.2939 63.857 25.9951 63.9808 25.7301C64.1092 25.4636 64.3374 25.275 64.6654 25.1644L64.8797 25.8001C64.7339 25.8492 64.6239 25.9294 64.5498 26.0407C64.4818 26.1549 64.4731 26.2873 64.5238 26.4376C64.576 26.5925 64.663 26.6926 64.7848 26.7378C64.9111 26.7815 65.0472 26.7787 65.193 26.7296L65.4073 27.3652Z" fill="white"/>
<path d="M64.9029 39.4789C64.8485 39.947 64.7037 40.3392 64.4685 40.6556C64.2333 40.9719 63.9236 41.1998 63.5396 41.3391C63.1549 41.4832 62.7095 41.5259 62.2032 41.4671C61.6969 41.4083 61.2731 41.2647 60.9317 41.0362C60.5898 40.8126 60.3406 40.5198 60.1842 40.1579C60.0278 39.7961 59.9767 39.3811 60.0311 38.913C60.0854 38.445 60.2305 38.0504 60.4663 37.7292C60.7015 37.4128 61.0114 37.1826 61.3961 37.0385C61.7801 36.8991 62.2253 36.8589 62.7316 36.9177C63.2379 36.9765 63.662 37.1177 64.0039 37.3414C64.3453 37.5698 64.5942 37.865 64.7506 38.2268C64.9065 38.5935 64.9572 39.0108 64.9029 39.4789ZM64.0933 39.3849C64.1238 39.1222 64.0881 38.8881 63.9861 38.6826C63.8835 38.4819 63.7163 38.3173 63.4844 38.1887C63.2519 38.0648 62.9613 37.9827 62.6126 37.9422C62.2639 37.9017 61.9623 37.9151 61.7076 37.9823C61.4523 38.0543 61.2518 38.1762 61.106 38.3481C60.9596 38.5247 60.8712 38.7444 60.8407 39.0071C60.8102 39.2698 60.8462 39.5015 60.9487 39.7022C61.0513 39.9029 61.2188 40.0651 61.4513 40.1889C61.6832 40.3175 61.9735 40.4021 62.3222 40.4426C62.6709 40.4831 62.9728 40.4673 63.2281 40.3953C63.4827 40.3281 63.683 40.2085 63.8288 40.0367C63.9746 39.8648 64.0628 39.6476 64.0933 39.3849Z" fill="white"/>
<path d="M58.526 48.4154C58.2797 48.2096 58.1007 47.9752 57.989 47.7122C57.8774 47.4493 57.8285 47.1742 57.8426 46.8869C57.8566 46.5997 57.9275 46.3082 58.0552 46.0124C58.242 45.5798 58.4945 45.2436 58.8128 45.004C59.1291 44.7687 59.4922 44.6374 59.902 44.6101C60.3099 44.5872 60.7479 44.6768 61.2158 44.8789C61.6837 45.0809 62.0492 45.3382 62.3123 45.6508C62.5734 45.9679 62.7268 46.3222 62.7725 46.7138C62.8163 47.1097 62.7466 47.5196 62.5636 47.9434C62.434 48.2436 62.2749 48.497 62.0862 48.7036C61.9019 48.912 61.6874 49.063 61.4428 49.1564C61.2007 49.2561 60.9367 49.2914 60.6508 49.2622L60.6572 48.283C60.9545 48.3223 61.1917 48.2885 61.3688 48.1817C61.5502 48.0767 61.6934 47.9029 61.7982 47.6601C61.9012 47.4217 61.9343 47.1872 61.8977 46.9567C61.8592 46.7305 61.7483 46.5203 61.5651 46.326C61.3863 46.1335 61.1336 45.9668 60.8069 45.8257C60.4847 45.6866 60.1919 45.6126 59.9287 45.6036C59.6635 45.5991 59.4354 45.6604 59.2444 45.7874C59.0534 45.9144 58.9026 46.1059 58.792 46.362C58.6891 46.6004 58.6645 46.8333 58.7181 47.0607C58.7699 47.2926 58.9108 47.5 59.1407 47.6831L58.526 48.4154Z" fill="white"/>
<path d="M55.9264 49.9929L59.628 52.986L57.3832 55.7622L56.7607 55.2588L58.3797 53.2566L57.4599 52.5128L56.1855 54.0888L55.591 53.6081L56.8654 52.0321L55.9231 51.2703L54.2407 53.351L53.6181 52.8476L55.9264 49.9929Z" fill="white"/>
<path d="M52.145 54.3085L53.5396 59.1806L52.5772 59.8806L48.3713 57.0536L49.2053 56.4469L51.9911 58.4251L52.5903 58.881L52.602 58.8726L52.3495 58.1822L51.3226 54.9067L52.145 54.3085ZM51.9999 55.85L52.4326 56.445L50.3212 57.9808L49.8884 57.3859L51.9999 55.85Z" fill="white"/>
<path d="M43.9026 64.0834L42.247 59.6202L43.3154 59.2239L45.8508 61.2682L46.5072 61.8556L46.514 61.8531L46.2009 61.0922L45.2427 58.509L46.0812 58.1979L47.7368 62.6611L46.6751 63.0549L44.1423 61.0173L43.4834 60.4232L43.4699 60.4282L43.7829 61.1891L44.7411 63.7723L43.9026 64.0834Z" fill="white"/>
<path d="M35.4148 61.7476C35.4834 61.434 35.6084 61.1669 35.7899 60.9462C35.9714 60.7256 36.1927 60.5551 36.4538 60.4346C36.715 60.3142 37.0062 60.2422 37.3275 60.2186C37.7974 60.1841 38.2123 60.2525 38.572 60.4237C38.9269 60.5954 39.2113 60.8565 39.425 61.2073C39.634 61.5583 39.7572 61.988 39.7945 62.4963C39.8318 63.0047 39.7728 63.4477 39.6173 63.8256C39.457 64.2038 39.2139 64.5037 38.8878 64.7253C38.557 64.9473 38.1614 65.0751 37.701 65.1089C37.3749 65.1329 37.0767 65.109 36.8062 65.0372C36.5361 64.9703 36.3031 64.85 36.1072 64.6763C35.9067 64.5078 35.7534 64.2901 35.647 64.0231L36.5181 63.5758C36.6208 63.8576 36.7604 64.0522 36.9371 64.1598C37.1141 64.2721 37.3344 64.3186 37.5982 64.2993C37.8571 64.2803 38.0803 64.2012 38.2678 64.0621C38.4505 63.9233 38.5856 63.7278 38.6731 63.4755C38.761 63.2279 38.7919 62.9267 38.7659 62.5719C38.7402 62.2218 38.6704 61.928 38.5565 61.6905C38.4379 61.4533 38.278 61.2794 38.0771 61.1688C37.8761 61.0582 37.6365 61.0131 37.3584 61.0336C37.0994 61.0526 36.8816 61.1385 36.7047 61.2913C36.5231 61.4444 36.4044 61.6653 36.3484 61.9539L35.4148 61.7476Z" fill="white"/>
<path d="M29.5064 64.367C28.9795 64.256 28.5922 64.0417 28.3445 63.7242C28.0969 63.4068 28.0182 63.0339 28.1084 62.6057C28.2045 62.1493 28.4289 61.8305 28.7815 61.6493C29.1332 61.4727 29.5702 61.4394 30.0925 61.5494L30.2032 61.5138L31.2054 61.7249L31.5814 59.9392L32.5413 60.1414L31.5603 64.7995L29.5064 64.367ZM30.0683 62.2593C29.7954 62.2018 29.5816 62.2133 29.4271 62.2938C29.2669 62.378 29.1625 62.5354 29.1139 62.7659C29.0654 62.9965 29.0979 63.1802 29.2116 63.3172C29.3195 63.4579 29.51 63.5569 29.7829 63.6144L30.7639 63.821L31.0493 62.4659L30.0683 62.2593ZM29.5397 61.9342L28.5183 59.2942L29.6123 59.5245L30.432 61.8273L29.5397 61.9342Z" fill="white"/>
<path d="M26.1969 58.3451L23.9905 62.5633L20.8269 60.9085L21.198 60.1991L23.4796 61.3925L24.0279 60.3444L22.232 59.405L22.5863 58.7276L24.3822 59.6669L24.9438 58.5932L22.5727 57.353L22.9438 56.6436L26.1969 58.3451Z" fill="white"/>
<path d="M16.01 57.1535C15.466 56.644 15.1862 56.0987 15.1706 55.5175C15.1517 54.9398 15.4036 54.3719 15.9262 53.8139C16.4456 53.2595 16.9958 52.971 17.5767 52.9486C18.1577 52.9262 18.7202 53.1697 19.2641 53.6792L20.6065 54.9365L17.3523 58.4108L16.01 57.1535ZM18.7586 54.2928C18.4287 53.9838 18.0893 53.8503 17.7403 53.8924C17.3845 53.9346 17.0307 54.1435 16.679 54.519C16.3273 54.8945 16.1436 55.2594 16.128 55.6137C16.1056 55.9683 16.2593 56.3 16.5892 56.609L17.1682 57.1514L19.3377 54.8352L18.7586 54.2928Z" fill="white"/>
<path d="M11.2591 51.3738L15.2085 48.7162L15.7642 49.542L11.8148 52.1996L11.2591 51.3738Z" fill="white"/>
<path d="M8.1182 44.6917L8.86125 44.3937L9.45464 45.8731L13.1297 44.399L13.5003 45.3228L9.82517 46.7969L10.4212 48.283L9.67819 48.581L8.1182 44.6917Z" fill="white"/>
<path fill-rule="evenodd" clip-rule="evenodd" d="M49 36C49 33.2071 49 31.8107 48.6072 30.688C47.9036 28.6773 46.3227 27.0964 44.312 26.3928C43.1893 26 41.7929 26 39 26L34.2 26C30.2796 26 28.3195 26 26.8221 26.763C25.5049 27.4341 24.4341 28.5049 23.763 29.8221C23 31.3194 23 33.2796 23 37.2L23 41.2C23 42.8802 23 43.7202 23.327 44.362C23.6146 44.9265 24.0735 45.3854 24.638 45.673C25.2798 46 26.1198 46 27.8 46L39 46C41.7929 46 43.1893 46 44.312 45.6072C46.3227 44.9036 47.9036 43.3227 48.6072 41.312C49 40.1893 49 38.7929 49 36ZM28 32.5C28 31.6716 28.6716 31 29.5 31L42.5 31C43.3284 31 44 31.6716 44 32.5C44 33.3284 43.3284 34 42.5 34L29.5 34C28.6716 34 28 33.3284 28 32.5ZM29.5 38C28.6716 38 28 38.6716 28 39.5C28 40.3284 28.6716 41 29.5 41L39.5 41C40.3284 41 41 40.3284 41 39.5C41 38.6716 40.3284 38 39.5 38L29.5 38Z" fill="white"/>
<defs>
<linearGradient id="paint0_linear_2101_55918" x1="97.9561" y1="-49.32" x2="-100.423" y2="69.6742" gradientUnits="userSpaceOnUse">
<stop offset="0.0410386" stop-color="#00C6E5"/>
<stop offset="1" stop-color="#045DE9"/>
</linearGradient>
</defs>
</svg>
