<?xml version="1.0" encoding="UTF-8" standalone="no"?>
<svg width="212px" height="212px" viewBox="0 0 212 212" version="1.1" xmlns="http://www.w3.org/2000/svg" xmlns:xlink="http://www.w3.org/1999/xlink" xmlns:sketch="http://www.bohemiancoding.com/sketch/ns">
    <!-- Generator: Sketch 3.3.2 (12043) - http://www.bohemiancoding.com/sketch -->
    <title>bicycle</title>
    <desc>Created with Sketch.</desc>
    <defs></defs>
    <g id="Page-1" stroke="none" stroke-width="1" fill="none" fill-rule="evenodd" sketch:type="MSPage">
        <g id="v7" sketch:type="MSArtboardGroup" transform="translate(-324.000000, -5139.000000)">
            <g id="Group-Copy-14" sketch:type="MSLayerGroup" transform="translate(160.000000, 5080.000000)">
                <g id="bicycle" transform="translate(164.000000, 59.000000)" sketch:type="MSShapeGroup">
                    <rect id="bg" fill="#FFFFFF" x="0" y="0" width="212" height="212"></rect>
                    <g id="Group" transform="translate(0.000000, 1.000000)">
                        <path d="M0.0632835821,0 L210.945274,0 L210.945274,211 L0.0632835821,211 L0.0632835821,0 Z" id="Fill-1" fill="#FFF205"></path>
                        <path d="M120.238806,110.775 C120.238806,96.790975 131.571841,85.455 145.552239,85.455 C159.532637,85.455 170.865672,96.790975 170.865672,110.775 C170.865672,124.759025 159.532637,136.095 145.552239,136.095 C131.571841,136.095 120.238806,124.759025 120.238806,110.775" id="Fill-2" fill="#1C1C1C"></path>
                        <path d="M40.079602,110.775 C40.079602,96.790975 51.4126368,85.455 65.3930348,85.455 C79.3734328,85.455 90.7064677,96.790975 90.7064677,110.775 C90.7064677,124.759025 79.3734328,136.095 65.3930348,136.095 C51.4126368,136.095 40.079602,124.759025 40.079602,110.775" id="Fill-3" fill="#1C1C1C"></path>
                        <path d="M145.552239,110.775 L105.368219,110.757065 L85.2830647,75.96 L125.512438,75.96 L145.552239,110.775" id="Fill-4" fill="#1C1C1C"></path>
                        <path d="M145.552239,83.345 C141.324896,83.345 137.319045,84.308215 133.740358,86.0247 L127.918269,75.910415 L138.240876,58.025 L142.38806,58.025 L142.38806,53.805 L125.512438,53.805 L125.512438,58.025 L133.369095,58.025 L124.235164,73.85 L88.9535124,73.85 L95.6457512,62.243945 L93.8179104,59.08 L74.8855721,59.08 C69.6520199,59.08 65.3930348,63.34009 65.3930348,68.575 C65.3930348,73.80991 69.6520199,78.07 74.8855721,78.07 L78.0497512,78.07 L78.0497512,73.85 L74.8855721,73.85 C71.9776915,73.85 69.6119403,71.483635 69.6119403,68.575 C69.6119403,65.666365 71.9776915,63.3 74.8855721,63.3 L90.1664478,63.3 L77.0941692,85.97406 C73.5429055,84.29028 69.5771343,83.345 65.3930348,83.345 C50.2724776,83.345 37.9701493,95.65052 37.9701493,110.775 C37.9701493,125.900535 50.2724776,138.205 65.3930348,138.205 C80.513592,138.205 92.8159204,125.900535 92.8159204,110.775 C92.8159204,101.34119 88.0285174,93.00458 80.7572338,88.06718 L85.2936119,80.19899 L103.541433,111.812065 L105.367164,112.867065 L118.21795,112.87234 C119.293771,127.01989 131.137294,138.205 145.552239,138.205 C160.673851,138.205 172.975124,125.900535 172.975124,110.775 C172.975124,95.65052 160.673851,83.345 145.552239,83.345 L145.552239,83.345 Z M88.5970149,110.775 C88.5970149,123.573205 78.1879204,133.985 65.3930348,133.985 C52.5981493,133.985 42.1890547,123.573205 42.1890547,110.775 C42.1890547,97.976795 52.5981493,87.565 65.3930348,87.565 C68.8103483,87.565 72.0525771,88.31405 74.9773333,89.64546 L63.4133134,109.70312 L67.0668856,111.81101 L78.6414527,91.73647 C84.653393,95.93537 88.5970149,102.901535 88.5970149,110.775 L88.5970149,110.775 Z M141.902886,108.66289 L122.449512,108.65445 C123.081294,101.703055 126.791821,95.63153 132.201512,91.809265 L141.902886,108.66289 L141.902886,108.66289 Z M88.9366368,78.07 L121.798746,78.07 L105.368219,106.53812 L88.9366368,78.07 L88.9366368,78.07 Z M109.019682,108.649175 L125.480796,80.13358 L130.087841,88.137865 C123.423025,92.70707 118.87399,100.14271 118.219005,108.653395 L109.019682,108.649175 L109.019682,108.649175 Z M145.552239,133.985 C133.465075,133.985 123.512677,124.691505 122.448458,112.87445 L145.551184,112.885 L147.38008,109.72211 L135.85403,89.697155 C138.807264,88.33304 142.091682,87.565 145.552239,87.565 C158.347124,87.565 168.756219,97.976795 168.756219,110.775 C168.756219,123.573205 158.347124,133.985 145.552239,133.985 L145.552239,133.985 Z" id="Fill-5" fill="#FFF205"></path>
                        <path d="M127.621891,109.72 L140.278607,109.72 L140.278607,111.83 L127.621891,111.83 L127.621891,109.72 Z" id="Fill-6" fill="#FFF205"></path>
                    </g>
                </g>
            </g>
        </g>
    </g>
</svg>