<?xml version="1.0" encoding="UTF-8" standalone="no"?>
<svg width="212px" height="212px" viewBox="0 0 212 212" version="1.1" xmlns="http://www.w3.org/2000/svg" xmlns:xlink="http://www.w3.org/1999/xlink" xmlns:sketch="http://www.bohemiancoding.com/sketch/ns">
    <!-- Generator: Sketch 3.3.2 (12043) - http://www.bohemiancoding.com/sketch -->
    <title>bicycle-stroke</title>
    <desc>Created with Sketch.</desc>
    <defs></defs>
    <g id="Page-1" stroke="none" stroke-width="1" fill="none" fill-rule="evenodd" sketch:type="MSPage">
        <g id="v7" sketch:type="MSArtboardGroup" transform="translate(-324.000000, -5139.000000)" fill="#FFFFFF">
            <g id="Group-Copy-14" sketch:type="MSLayerGroup" transform="translate(160.000000, 5080.000000)">
                <g id="bicycle-stroke" transform="translate(164.000000, 59.000000)" sketch:type="MSShapeGroup">
                    <rect id="bg" x="0" y="0" width="212" height="212"></rect>
                    <g id="Group" transform="translate(38.000000, 54.000000)" stroke="#232323" stroke-width="1.05472637">
                        <path d="M82.265625,56.7 C82.265625,42.78225 93.5982422,31.5 107.578125,31.5 C121.558008,31.5 132.890625,42.78225 132.890625,56.7 C132.890625,70.61775 121.558008,81.9 107.578125,81.9 C93.5982422,81.9 82.265625,70.61775 82.265625,56.7" id="Fill-2"></path>
                        <path d="M2.109375,56.7 C2.109375,42.78225 13.4419922,31.5 27.421875,31.5 C41.4017578,31.5 52.734375,42.78225 52.734375,56.7 C52.734375,70.61775 41.4017578,81.9 27.421875,81.9 C13.4419922,81.9 2.109375,70.61775 2.109375,56.7" id="Fill-3"></path>
                        <path d="M107.578125,56.7 L67.3955859,56.68215 L47.3111719,22.05 L87.5390625,22.05 L107.578125,56.7" id="Fill-4"></path>
                        <path d="M107.578125,29.4 C103.350937,29.4 99.3452344,30.35865 95.7666797,32.067 L89.9448047,22.00065 L100.267031,4.2 L104.414062,4.2 L104.414062,0 L87.5390625,0 L87.5390625,4.2 L95.3954297,4.2 L86.2618359,19.95 L50.9814844,19.95 L57.6734766,8.39895 L55.8457031,5.25 L36.9140625,5.25 C31.6807031,5.25 27.421875,9.4899 27.421875,14.7 C27.421875,19.9101 31.6807031,24.15 36.9140625,24.15 L40.078125,24.15 L40.078125,19.95 L36.9140625,19.95 C34.0062891,19.95 31.640625,17.59485 31.640625,14.7 C31.640625,11.80515 34.0062891,9.45 36.9140625,9.45 L52.194375,9.45 L39.1225781,32.0166 C35.5714453,30.3408 31.6058203,29.4 27.421875,29.4 C12.301875,29.4 0,41.6472 0,56.7 C0,71.75385 12.301875,84 27.421875,84 C42.541875,84 54.84375,71.75385 54.84375,56.7 C54.84375,47.3109 50.0565234,39.0138 42.7855078,34.0998 L47.3217187,26.2689 L65.5688672,57.73215 L67.3945312,58.78215 L80.2448438,58.7874 C81.320625,72.8679 93.1637109,84 107.578125,84 C122.69918,84 135,71.75385 135,56.7 C135,41.6472 122.69918,29.4 107.578125,29.4 L107.578125,29.4 Z M50.625,56.7 C50.625,69.43755 40.2162891,79.8 27.421875,79.8 C14.6274609,79.8 4.21875,69.43755 4.21875,56.7 C4.21875,43.96245 14.6274609,33.6 27.421875,33.6 C30.8390625,33.6 34.0811719,34.3455 37.0058203,35.6706 L25.4422266,55.6332 L29.0956641,57.7311 L40.6698047,37.7517 C46.6815234,41.9307 50.625,48.86385 50.625,56.7 L50.625,56.7 Z M103.928906,54.5979 L84.47625,54.5895 C85.1080078,47.67105 88.8183984,41.6283 94.2278906,37.82415 L103.928906,54.5979 L103.928906,54.5979 Z M50.9646094,24.15 L83.8255078,24.15 L67.3955859,52.4832 L50.9646094,24.15 L50.9646094,24.15 Z M71.0469141,54.58425 L87.5074219,26.2038 L92.1142969,34.17015 C85.4497266,38.7177 80.9008594,46.1181 80.2458984,54.58845 L71.0469141,54.58425 L71.0469141,54.58425 Z M107.578125,79.8 C95.4914063,79.8 85.539375,70.55055 84.4751953,58.7895 L107.57707,58.8 L109.405898,55.6521 L97.8802734,35.72205 C100.833398,34.3644 104.117695,33.6 107.578125,33.6 C120.372539,33.6 130.78125,43.96245 130.78125,56.7 C130.78125,69.43755 120.372539,79.8 107.578125,79.8 L107.578125,79.8 Z" id="Fill-5"></path>
                    </g>
                </g>
            </g>
        </g>
    </g>
</svg>