<?xml version="1.0" encoding="UTF-8" standalone="no"?>
<svg width="212px" height="212px" viewBox="0 0 212 212" version="1.1" xmlns="http://www.w3.org/2000/svg" xmlns:xlink="http://www.w3.org/1999/xlink" xmlns:sketch="http://www.bohemiancoding.com/sketch/ns">
    <!-- Generator: Sketch 3.3.2 (12043) - http://www.bohemiancoding.com/sketch -->
    <title>didenkul</title>
    <desc>Created with Sketch.</desc>
    <defs>
        <path d="M60.8,0.4 L0.8,62.7 L3.5,0.4 L60.8,0.4 L60.8,0.4 Z M29.2,101.1 L52,108.4 L84,93.6 L95,66.3 L94.8,34.4 L29.2,101.1 Z" id="path-1"></path>
    </defs>
    <g id="Page-1" stroke="none" stroke-width="1" fill="none" fill-rule="evenodd" sketch:type="MSPage">
        <g id="v7" sketch:type="MSArtboardGroup" transform="translate(-324.000000, -4706.000000)">
            <g id="Group-Copy-9" sketch:type="MSLayerGroup" transform="translate(160.000000, 4660.000000)">
                <g id="didenkul" transform="translate(164.000000, 46.000000)">
                    <rect id="bg-copy-4" fill="#FFFFFF" sketch:type="MSShapeGroup" x="0" y="0" width="212" height="212"></rect>
                    <path d="M105.9,49.5 L105.9,27" id="Shape" stroke="#000000" stroke-width="6" sketch:type="MSShapeGroup"></path>
                    <path d="M77,35.4 L87.1,49.5 L124.5,49.5 L135.1,35.4" id="Shape" stroke="#000000" stroke-width="6" sketch:type="MSShapeGroup"></path>
                    <circle id="Oval" fill="#000000" sketch:type="MSShapeGroup" cx="92" cy="36.2" r="4.6"></circle>
                    <circle id="Oval" fill="#000000" sketch:type="MSShapeGroup" cx="119.8" cy="36.2" r="4.6"></circle>
                    <path d="M149,68.8 L149,127.1 C149,150.9 129.7,170.3 106,170.3 C82.3,170.3 63,151 63,127.2 L63,68.8 L149,68.8 L149,68.8 Z M157,60.8 L55,60.8 L55,127.1 C55,155.4 77.7,178.3 106,178.3 C134.3,178.3 157,155.4 157,127.1 L157,60.8 L157,60.8 Z" id="Shape" fill="#000000" sketch:type="MSShapeGroup"></path>
                    <path d="M153.8,99.4 L84,169.3" id="Shape" stroke="#000000" stroke-width="6" sketch:type="MSShapeGroup"></path>
                    <path d="M57.9,125.7 L120,63.7" id="Shape" stroke="#000000" stroke-width="6" sketch:type="MSShapeGroup"></path>
                    <path d="M95.2,87.2 L130.8,87.2 L130.8,121.2" id="Shape" stroke="#000000" stroke-width="6" sketch:type="MSShapeGroup"></path>
                    <path d="M80.1,102.5 L115.7,102.5 L115.7,136.5" id="Shape" stroke="#000000" stroke-width="6" sketch:type="MSShapeGroup"></path>
                    <path d="M65.1,117.7 L100.7,117.7 L100.7,151.7" id="Shape" stroke="#000000" stroke-width="6" sketch:type="MSShapeGroup"></path>
                    <g id="Clipped" transform="translate(57.000000, 66.000000)">
                        <mask id="mask-2" sketch:name="SVGID_1_" fill="white">
                            <use xlink:href="#path-1"></use>
                        </mask>
                        <g id="SVGID_1_"></g>
                        <g id="Group" mask="url(#mask-2)" stroke="#000000" sketch:type="MSShapeGroup">
                            <g transform="translate(-1.000000, -4.000000)" id="Shape">
                                <path d="M89.4,89.2 L2.4,2.2"></path>
                                <path d="M92.2,85.8 L7.9,1.6"></path>
                                <path d="M95.1,82.6 L13.9,1.3"></path>
                                <path d="M96,77.5 L19.6,1.1"></path>
                                <path d="M97,72.3 L26,1.3"></path>
                                <path d="M98.1,67.1 L32,1.1"></path>
                                <path d="M97.5,61 L38.1,1.6"></path>
                                <path d="M98,55.5 L43.6,1.2"></path>
                                <path d="M98.3,50.2 L48.9,0.8"></path>
                                <path d="M57.2,112.3 L2.1,57.3"></path>
                                <path d="M62.2,111.1 L1.7,50.6"></path>
                                <path d="M68.4,111.1 L2.8,45.5"></path>
                                <path d="M71,107.8 L1.6,38.4"></path>
                                <path d="M77.2,107.8 L2.1,32.7"></path>
                                <path d="M80.1,104.5 L2.4,26.8"></path>
                                <path d="M82.1,100.9 L2.5,21.3"></path>
                                <path d="M85,97.6 L0.6,13.2"></path>
                                <path d="M87.3,93.6 L3.5,9.9"></path>
                                <path d="M43.9,111.7 L3.3,71.1"></path>
                                <path d="M51.4,113 L1.5,63.1"></path>
                            </g>
                        </g>
                    </g>
                </g>
            </g>
        </g>
    </g>
</svg>