<?xml version="1.0" encoding="UTF-8" standalone="no"?>
<svg width="212px" height="212px" viewBox="0 0 212 212" version="1.1" xmlns="http://www.w3.org/2000/svg" xmlns:xlink="http://www.w3.org/1999/xlink" xmlns:sketch="http://www.bohemiancoding.com/sketch/ns">
    <!-- Generator: Sketch 3.3.2 (12043) - http://www.bohemiancoding.com/sketch -->
    <title>didenkul-stroke</title>
    <desc>Created with Sketch.</desc>
    <defs>
        <circle id="path-1" cx="92" cy="36.2" r="4.6"></circle>
        <circle id="path-2" cx="119.8" cy="36.2" r="4.6"></circle>
        <path d="M60.8,0.4 L0.8,62.7 L3.5,0.4 L60.8,0.4 L60.8,0.4 Z M29.2,101.1 L52,108.4 L84,93.6 L95,66.3 L94.8,34.4 L29.2,101.1 Z" id="path-3"></path>
    </defs>
    <g id="Page-1" stroke="none" stroke-width="1" fill="none" fill-rule="evenodd" sketch:type="MSPage">
        <g id="v7" sketch:type="MSArtboardGroup" transform="translate(-324.000000, -4706.000000)">
            <g id="Group-Copy-9" sketch:type="MSLayerGroup" transform="translate(160.000000, 4660.000000)">
                <g id="didenkul-stroke" transform="translate(164.000000, 46.000000)">
                    <rect id="bg-copy-3" fill="#FFFFFF" sketch:type="MSShapeGroup" x="0" y="0" width="212" height="212"></rect>
                    <path d="M105,49.5 L105,27" id="Shape" stroke="#000000" sketch:type="MSShapeGroup"></path>
                    <path d="M77,35.4 L87.1,49.5 L124.5,49.5 L135.1,35.4" id="Shape" stroke="#000000" sketch:type="MSShapeGroup"></path>
                    <g id="Oval">
                        <use stroke="#000000" stroke-width="1" fill="#FFFFFF" fill-rule="evenodd" sketch:type="MSShapeGroup" xlink:href="#path-1"></use>
                        <use stroke="none" fill="none" xlink:href="#path-1"></use>
                    </g>
                    <g id="Oval">
                        <use stroke="#000000" stroke-width="1" fill="#FFFFFF" fill-rule="evenodd" sketch:type="MSShapeGroup" xlink:href="#path-2"></use>
                        <use stroke="none" fill="none" xlink:href="#path-2"></use>
                    </g>
                    <path d="M153.8,99.4 L84,169.3" id="Shape" stroke="#232323" fill="#FFFFFF" sketch:type="MSShapeGroup"></path>
                    <path d="M57.9,125.7 L120,63.7" id="Shape" stroke="#232323" fill="#FFFFFF" sketch:type="MSShapeGroup"></path>
                    <path d="M96.2,87.2 L131.8,87.2 L131.8,121.2" id="Shape" stroke="#232323" fill="#FFFFFF" sketch:type="MSShapeGroup"></path>
                    <path d="M80.1,102.5 L115.7,102.5 L115.7,136.5" id="Shape" stroke="#232323" fill="#FFFFFF" sketch:type="MSShapeGroup"></path>
                    <path d="M65.1,117.7 L100.7,117.7 L100.7,151.7" id="Shape" stroke="#232323" fill="#FFFFFF" sketch:type="MSShapeGroup"></path>
                    <g id="Clipped" transform="translate(57.000000, 66.000000)">
                        <mask id="mask-4" sketch:name="SVGID_1_" fill="white">
                            <use xlink:href="#path-3"></use>
                        </mask>
                        <use id="SVGID_1_" stroke="#000000" fill="#FFFFFF" sketch:type="MSShapeGroup" xlink:href="#path-3"></use>
                    </g>
                    <path d="M149,68.8 L149,127.1 C149,150.9 129.7,170.3 106,170.3 C82.3,170.3 63,151 63,127.2 L63,68.8 L149,68.8 L149,68.8 Z M157,60.8 L55,60.8 L55,127.1 C55,155.4 77.7,178.3 106,178.3 C134.3,178.3 157,155.4 157,127.1 L157,60.8 L157,60.8 Z" id="Shape" stroke="#232323" fill="#FFFFFF" sketch:type="MSShapeGroup"></path>
                </g>
            </g>
        </g>
    </g>
</svg>