<?xml version="1.0" encoding="UTF-8" standalone="no"?>
<svg width="695px" height="446px" viewBox="0 0 695 446" version="1.1" xmlns="http://www.w3.org/2000/svg" xmlns:xlink="http://www.w3.org/1999/xlink" xmlns:sketch="http://www.bohemiancoding.com/sketch/ns">
    <!-- Generator: Sketch 3.3.2 (12043) - http://www.bohemiancoding.com/sketch -->
    <title>faceplay-2</title>
    <desc>Created with Sketch.</desc>
    <defs></defs>
    <g id="Page-1" stroke="none" stroke-width="1" fill="none" fill-rule="evenodd" sketch:type="MSPage">
        <g id="Group-Copy-15" sketch:type="MSLayerGroup" transform="translate(-212.000000, -78.000000)">
            <g id="faceplay-2" transform="translate(212.000000, 78.000000)" sketch:type="MSShapeGroup">
                <rect id="bg" stroke-opacity="0.01" stroke="#FFFFFF" x="0" y="0" width="695" height="446"></rect>
                <g id="logo-start" transform="translate(222.000000, 60.000000)">
                    <path d="M87.1604167,0 L162.839583,0 C187.9375,0 200.483333,0 213.99375,4.27083333 C228.74375,9.63958333 240.360417,21.25625 245.729167,36.00625 C250,49.5145833 250,62.0645833 250,87.1604167 L250,162.839583 C250,187.9375 250,200.483333 245.729167,213.99375 C240.360417,228.74375 228.74375,240.360417 213.99375,245.727083 C200.483333,250 187.9375,250 162.839583,250 L87.1604167,250 C62.0625,250 49.5145833,250 36.00625,245.727083 C21.25625,240.360417 9.63958333,228.74375 4.27083333,213.99375 C0,200.483333 0,187.9375 0,162.839583 L0,87.1604167 C0,62.0645833 0,49.5145833 4.27083333,36.00625 C9.63958333,21.25625 21.25625,9.63958333 36.00625,4.27083333 C49.5145833,0 62.0625,0 87.1604167,0 L87.1604167,0" id="Icon-Shape-2" opacity="0" fill="#FFFFFF"></path>
                    <path d="M156.239939,106.669925 L206.327077,77.9909995 L206.327077,173.352115 L155.073563,144.005345 L175.444084,132.211886 L187.900977,125 L175.444084,117.788114 L156.239939,106.669925 Z" id="Rectangle-31" fill="#FC4F53"></path>
                    <path d="M43.672923,51.1287135 L171.268781,125 L43.672923,198.871287 L43.672923,51.1287135 Z" id="Rectangle-29" fill="#FC4F53"></path>
                </g>
                <path d="M271.69702,317 L268.080687,317 L268.080687,294.69165 L280.669188,294.69165 L280.669188,297.773926 L271.69702,297.773926 L271.69702,304.747192 L280.104612,304.747192 L280.104612,307.844727 L271.69702,307.844727 L271.69702,317 Z M300.551878,317 L298.324095,310.804932 L289.794432,310.804932 L287.612425,317 L283.76721,317 L292.113768,294.600098 L296.081053,294.600098 L304.427611,317 L300.551878,317 Z M297.362792,307.661621 L295.272337,301.588623 C295.119749,301.18172 294.908671,300.540857 294.639098,299.666016 C294.369524,298.791174 294.183878,298.150311 294.082152,297.743408 C293.807492,298.994635 293.405682,300.362826 292.876708,301.848022 L290.862547,307.661621 L297.362792,307.661621 Z M318.862914,297.499268 C316.767363,297.499268 315.119431,298.241855 313.919066,299.727051 C312.718702,301.212247 312.118529,303.261991 312.118529,305.876343 C312.118529,308.612766 312.695814,310.682854 313.850402,312.08667 C315.004989,313.490486 316.67581,314.192383 318.862914,314.192383 C319.808964,314.192383 320.724482,314.098288 321.609496,313.910095 C322.49451,313.721903 323.415115,313.480307 324.371337,313.185303 L324.371337,316.313354 C322.621654,316.974572 320.638031,317.305176 318.420409,317.305176 C315.155012,317.305176 312.647509,316.315908 310.897826,314.337341 C309.148143,312.358775 308.273314,309.528298 308.273314,305.845825 C308.273314,303.526478 308.698013,301.497079 309.547423,299.757568 C310.396834,298.018058 311.625154,296.68547 313.232421,295.759766 C314.839688,294.834061 316.726673,294.371216 318.893432,294.371216 C321.172089,294.371216 323.277781,294.84932 325.21057,295.805542 L323.898314,298.842041 C323.145544,298.486001 322.349552,298.173199 321.510314,297.903625 C320.671076,297.634052 319.788619,297.499268 318.862914,297.499268 L318.862914,297.499268 Z M344.421875,317 L331.802856,317 L331.802856,294.69165 L344.421875,294.69165 L344.421875,297.773926 L335.449707,297.773926 L335.449707,303.846924 L343.857299,303.846924 L343.857299,306.898682 L335.449707,306.898682 L335.449707,313.902466 L344.421875,313.902466 L344.421875,317 Z M366.63916,301.436035 C366.63916,303.765555 365.876228,305.550816 364.350342,306.79187 C362.824455,308.032924 360.652643,308.653442 357.834839,308.653442 L355.515503,308.653442 L355.515503,317 L351.868652,317 L351.868652,294.69165 L358.292603,294.69165 C361.079889,294.69165 363.167779,295.261306 364.556335,296.400635 C365.944892,297.539963 366.63916,299.218413 366.63916,301.436035 L366.63916,301.436035 Z M355.515503,305.586426 L357.453369,305.586426 C359.325123,305.586426 360.698401,305.260908 361.573242,304.609863 C362.448084,303.958818 362.885498,302.941576 362.885498,301.558105 C362.885498,300.276361 362.49386,299.320153 361.710571,298.689453 C360.927283,298.058753 359.706592,297.743408 358.048462,297.743408 L355.515503,297.743408 L355.515503,305.586426 Z M373.719727,317 L373.719727,294.69165 L377.366578,294.69165 L377.366578,313.871948 L386.811768,313.871948 L386.811768,317 L373.719727,317 Z M407.121705,317 L404.893922,310.804932 L396.364259,310.804932 L394.182252,317 L390.337037,317 L398.683595,294.600098 L402.65088,294.600098 L410.997437,317 L407.121705,317 Z M403.932618,307.661621 L401.842164,301.588623 C401.689575,301.18172 401.478498,300.540857 401.208924,299.666016 C400.939351,298.791174 400.753704,298.150311 400.651978,297.743408 C400.377319,298.994635 399.975508,300.362826 399.446534,301.848022 L397.432374,307.661621 L403.932618,307.661621 Z M420.992433,304.869263 L426.271974,294.69165 L430.239259,294.69165 L422.808229,308.348267 L422.808229,317 L419.14612,317 L419.14612,308.470337 L411.745607,294.69165 L415.712892,294.69165 L420.992433,304.869263 Z" id="FACEPLAY" fill="#000000"></path>
            </g>
        </g>
    </g>
</svg>