<?xml version="1.0" encoding="UTF-8" standalone="no"?>
<svg width="34px" height="22px" viewBox="0 0 34 22" version="1.1" xmlns="http://www.w3.org/2000/svg" xmlns:xlink="http://www.w3.org/1999/xlink" xmlns:sketch="http://www.bohemiancoding.com/sketch/ns">
    <!-- Generator: Sketch 3.3.2 (12043) - http://www.bohemiancoding.com/sketch -->
    <title>gplus</title>
    <desc>Created with Sketch.</desc>
    <defs></defs>
    <g id="Page-1" stroke="none" stroke-width="1" fill="none" fill-rule="evenodd" sketch:type="MSPage">
        <g id="decorstudio" sketch:type="MSArtboardGroup" transform="translate(-762.000000, -2327.000000)" fill="#000000">
            <path d="M772.81625,2336.45456 L772.81625,2340.16269 L778.9575,2340.16269 C778.711,2341.75644 777.102375,2344.83131 772.822625,2344.83131 C769.1315,2344.83131 766.11825,2341.77131 766.11825,2337.99944 C766.11825,2334.22756 769.125125,2331.16756 772.81625,2331.16756 C774.92,2331.16756 776.32675,2332.06431 777.13,2332.83781 L780.06675,2330.01156 C778.181875,2328.24781 775.738125,2327.18531 772.8205,2327.18531 C766.834375,2327.18319 762,2332.01544 762,2337.99944 C762,2343.98344 766.8365,2348.81569 772.81625,2348.81569 C779.06375,2348.81569 783.20325,2344.42756 783.20325,2338.24594 C783.20325,2337.53619 783.12675,2336.99219 783.03325,2336.45456 L772.81625,2336.45456 L772.81625,2336.45456 Z M796,2336.45456 L792.908125,2336.45456 L792.908125,2333.36269 L789.81625,2333.36269 L789.81625,2336.45456 L786.7265,2336.45456 L786.7265,2339.54431 L789.818375,2339.54431 L789.818375,2342.63619 L792.91025,2342.63619 L792.91025,2339.54431 L796,2339.54431 L796,2336.45456 Z" id="gplus" sketch:type="MSShapeGroup"></path>
        </g>
    </g>
</svg>