<?xml version="1.0" encoding="UTF-8" standalone="no"?>
<svg width="500px" height="422px" viewBox="0 0 500 422" version="1.1" xmlns="http://www.w3.org/2000/svg" xmlns:xlink="http://www.w3.org/1999/xlink" xmlns:sketch="http://www.bohemiancoding.com/sketch/ns">
    <!-- Generator: Sketch 3.3.2 (12043) - http://www.bohemiancoding.com/sketch -->
    <title>itcoffee-4</title>
    <desc>Created with Sketch.</desc>
    <defs></defs>
    <g id="Page-1" stroke="none" stroke-width="1" fill="none" fill-rule="evenodd" sketch:type="MSPage">
        <g id="itcoffee-4" sketch:type="MSLayerGroup">
            <rect id="Rectangle-40-Copy-2" fill="#FF4D4D" sketch:type="MSShapeGroup" x="0" y="0" width="500" height="421.259649"></rect>
            <g id="logo" transform="translate(180.000000, 148.000000)" sketch:type="MSShapeGroup">
                <ellipse id="black" fill="#383532" cx="62.5263793" cy="62.6168224" rx="58.7880615" ry="58.8785047"></ellipse>
                <path d="M21.8872777,62.7845056 L21.8872777,60.4490619 L43.7003216,46.9034886 L46.3627274,51.1072872 L29.3606974,61.3832394 L46.3627274,71.4256472 L43.7003216,75.6294458 L21.8872777,62.7845056 Z M68.269189,43.3069054 L72.8466586,45.3620958 L56.1715908,83.1028656 L51.5941212,80.9542574 L68.269189,43.3069054 Z M80.6003316,75.6294458 L77.9379258,71.4256472 L94.9399558,61.3832394 L77.9379258,51.1072872 L80.6003316,46.9034886 L102.413376,60.4490619 L102.413376,62.7845056 L80.6003316,75.6294458 Z" id="&lt;/&gt;" fill="#FFFFFF"></path>
                <path d="M126.401869,53.5693746 C121.717772,53.5693746 117.920561,57.3665857 117.920561,62.050683 C117.920561,66.7347803 121.717772,70.5319914 126.401869,70.5319914 L143.754765,70.5319914 C148.438862,70.5319914 152.236073,66.7347803 152.236073,62.050683 C152.236073,57.3665857 148.438862,53.5693746 143.754765,53.5693746 L126.401869,53.5693746 Z" id="Path-68" fill="#FFFFFF"></path>
                <path d="M124.989674,62.6168224 C124.989674,28.0706104 97.0251704,0.0630841121 62.5263793,0.0630841121 C28.0275881,0.0630841121 0.0630841121,28.0706104 0.0630841121,62.6168224 C0.0630841121,97.1630345 28.0275881,125.170561 62.5263793,125.170561 C97.0251704,125.170561 124.989674,97.1630345 124.989674,62.6168224 Z M7.4135514,62.6168224 C7.4135514,32.127634 32.0896708,7.4135514 62.5263793,7.4135514 C92.9630878,7.4135514 117.639207,32.127634 117.639207,62.6168224 C117.639207,93.1060108 92.9630878,117.820093 62.5263793,117.820093 C32.0896708,117.820093 7.4135514,93.1060108 7.4135514,62.6168224 Z" id="stroke" fill="#FFFFFF"></path>
            </g>
        </g>
    </g>
</svg>