<?xml version="1.0" encoding="UTF-8" standalone="no"?>
<svg width="500px" height="422px" viewBox="0 0 500 422" version="1.1" xmlns="http://www.w3.org/2000/svg" xmlns:xlink="http://www.w3.org/1999/xlink" xmlns:sketch="http://www.bohemiancoding.com/sketch/ns">
    <!-- Generator: Sketch 3.3.2 (12043) - http://www.bohemiancoding.com/sketch -->
    <title>itcoffee-3</title>
    <desc>Created with Sketch.</desc>
    <defs></defs>
    <g id="Page-1" stroke="none" stroke-width="1" fill="none" fill-rule="evenodd" sketch:type="MSPage">
        <g id="itcoffee-3" sketch:type="MSLayerGroup">
            <rect id="Rectangle-40-Copy-2" fill="#373832" sketch:type="MSShapeGroup" x="0" y="0" width="500" height="421.259649"></rect>
            <g id="bg-+-[]&gt;-+-‘“" transform="translate(100.000000, 61.000000)" sketch:type="MSShapeGroup">
                <rect id="bg" fill="#363831" x="0" y="0" width="300" height="300"></rect>
                <path d="M106.5888,108.52 L140.7168,108.52 L140.7168,118.024 L117.3024,118.024 L117.3024,179.368 L140.7168,179.368 L140.7168,188.872 L106.5888,188.872 L106.5888,108.52 Z M194.2848,188.872 L160.1568,188.872 L160.1568,179.368 L183.5712,179.368 L183.5712,118.024 L160.1568,118.024 L160.1568,108.52 L194.2848,108.52 L194.2848,188.872 Z M210.3552,167.272 L205.4304,159.496 L236.88,140.92 L205.4304,121.912 L210.3552,114.136 L250.704,139.192 L250.704,143.512 L210.3552,167.272 Z" id="[]&gt;" fill="#FFFFFF"></path>
                <path d="M128.799609,97.3806641 L128.799609,86.6755859 L139.096875,78.978125 L139.096875,97.3806641 L128.799609,97.3806641 Z M161.478986,97.3806641 L161.478986,86.6755859 L171.776251,78.978125 L171.776251,97.3806641 L161.478986,97.3806641 Z M145.268439,97.3806641 L145.268439,86.6755859 L155.565704,78.978125 L155.565704,97.3806641 L145.268439,97.3806641 Z" id="‘“" fill="#FFFFFF"></path>
            </g>
        </g>
    </g>
</svg>