<?xml version="1.0" encoding="UTF-8" standalone="no"?>
<svg width="695px" height="446px" viewBox="0 0 695 446" version="1.1" xmlns="http://www.w3.org/2000/svg" xmlns:xlink="http://www.w3.org/1999/xlink" xmlns:sketch="http://www.bohemiancoding.com/sketch/ns">
    <!-- Generator: Sketch 3.3.2 (12043) - http://www.bohemiancoding.com/sketch -->
    <title>itcoffee-2</title>
    <desc>Created with Sketch.</desc>
    <defs></defs>
    <g id="Page-1" stroke="none" stroke-width="1" fill="none" fill-rule="evenodd" sketch:type="MSPage">
        <g id="Group-Copy-15" sketch:type="MSLayerGroup" transform="translate(-212.000000, -78.000000)">
            <g id="itcoffee-2" transform="translate(212.000000, 78.000000)" sketch:type="MSShapeGroup">
                <rect id="bg" stroke-opacity="0.01" stroke="#FFFFFF" x="0" y="0" width="695" height="446"></rect>
                <path d="M217.658582,330.267857 L212.826679,330.267857 L210.872201,338.517857 L205.06306,338.517857 L207.017537,330.267857 L203,330.267857 L204.194403,325.071429 L208.266231,325.071429 L209.623507,319.392857 L205.714552,319.392857 L206.908955,314.196429 L210.872201,314.196429 L212.772388,306.482143 L218.527239,306.482143 L216.681343,314.196429 L221.513246,314.196429 L223.413433,306.482143 L229.168284,306.482143 L227.322388,314.196429 L231.231343,314.196429 L229.874067,319.392857 L226.073694,319.392857 L224.716418,325.071429 L228.4625,325.071429 L227.159515,330.267857 L223.467724,330.267857 L221.513246,338.517857 L215.704104,338.517857 L217.658582,330.267857 Z M214.075373,325.071429 L218.907276,325.071429 L220.264552,319.392857 L215.432649,319.392857 L214.075373,325.071429 Z M236.334701,334.714286 L245.944216,334.714286 L245.944216,310.285714 L236.334701,310.285714 L236.334701,303.75 L263.045896,303.75 L263.045896,310.285714 L253.38209,310.285714 L253.38209,334.714286 L263.045896,334.714286 L263.045896,341.25 L236.334701,341.25 L236.334701,334.714286 Z M272.383955,335.357143 L278.573134,335.357143 L278.573134,309.642857 L273.361194,309.642857 L273.361194,316.125 L267.389179,316.125 L267.389179,303.75 L297.140672,303.75 L297.140672,316.125 L291.168657,316.125 L291.168657,309.642857 L286.011007,309.642857 L286.011007,335.357143 L292.145896,335.357143 L292.145896,341.25 L272.383955,341.25 L272.383955,335.357143 Z M322.657463,328.660714 L328.629478,328.660714 L328.629478,339.375 C327.471263,340.196433 325.996371,340.839283 324.204757,341.303571 C322.413144,341.767859 320.576315,342 318.694216,342 C316.305399,342 314.034246,341.651789 311.88069,340.955357 C309.727135,340.258925 307.836016,339.133936 306.207276,337.580357 C304.578537,336.026778 303.275565,334.008941 302.298321,331.526786 C301.321077,329.04463 300.832463,326.035732 300.832463,322.5 C300.832463,318.82141 301.384416,315.741084 302.48834,313.258929 C303.592263,310.776773 305.012864,308.776793 306.750187,307.258929 C308.487509,305.741064 310.42387,304.651789 312.559328,303.991071 C314.694787,303.330354 316.79402,303 318.85709,303 C321.028742,303 322.865571,303.17857 324.367631,303.535714 C325.86969,303.892859 327.109323,304.303569 328.086567,304.767857 L328.086567,315.910714 L322.114552,315.910714 L322.114552,309.803571 C320.992532,309.624999 319.834334,309.535714 318.639925,309.535714 C317.228351,309.535714 315.916331,309.79464 314.703825,310.3125 C313.491319,310.83036 312.432654,311.624995 311.527799,312.696429 C310.622943,313.767862 309.917167,315.116063 309.410448,316.741071 C308.903729,318.36608 308.650373,320.285703 308.650373,322.5 C308.650373,324.428581 308.885632,326.187492 309.356157,327.776786 C309.826681,329.366079 310.514361,330.732137 311.419216,331.875 C312.324072,333.017863 313.427979,333.901783 314.73097,334.526786 C316.033962,335.151789 317.517902,335.464286 319.182836,335.464286 C320.377245,335.464286 321.535442,335.357144 322.657463,335.142857 L322.657463,328.660714 Z M333.027052,327.857143 C333.027052,325.607132 333.370892,323.607152 334.058582,321.857143 C334.746272,320.107134 335.723501,318.625006 336.990299,317.410714 C338.257096,316.196422 339.768182,315.276789 341.523601,314.651786 C343.27902,314.026783 345.242526,313.714286 347.414179,313.714286 C349.694414,313.714286 351.730308,314.053568 353.521922,314.732143 C355.313535,315.410718 356.824621,316.366065 358.055224,317.598214 C359.285827,318.830363 360.217814,320.32142 360.851213,322.071429 C361.484611,323.821437 361.801306,325.749989 361.801306,327.857143 C361.801306,330.107154 361.457466,332.107134 360.769776,333.857143 C360.082086,335.607152 359.104857,337.08928 357.83806,338.303571 C356.571262,339.517863 355.060177,340.437497 353.304757,341.0625 C351.549338,341.687503 349.585832,342 347.414179,342 C345.133944,342 343.09805,341.660718 341.306437,340.982143 C339.514823,340.303568 338.003737,339.34822 336.773134,338.116071 C335.542531,336.883922 334.610544,335.392866 333.977146,333.642857 C333.343747,331.892848 333.027052,329.964296 333.027052,327.857143 L333.027052,327.857143 Z M340.302052,327.857143 C340.302052,329.03572 340.464924,330.124995 340.790672,331.125 C341.11642,332.125005 341.586937,332.999996 342.202239,333.75 C342.81754,334.500004 343.559511,335.080355 344.428172,335.491071 C345.296833,335.901788 346.292159,336.107143 347.414179,336.107143 C349.513443,336.107143 351.223594,335.446435 352.544683,334.125 C353.865772,332.803565 354.526306,330.7143 354.526306,327.857143 C354.526306,325.392845 353.911014,323.401793 352.68041,321.883929 C351.449807,320.366064 349.694414,319.607143 347.414179,319.607143 C346.400741,319.607143 345.459706,319.758927 344.591045,320.0625 C343.722384,320.366073 342.971365,320.857139 342.337966,321.535714 C341.704568,322.214289 341.206905,323.071423 340.844963,324.107143 C340.483021,325.142862 340.302052,326.39285 340.302052,327.857143 L340.302052,327.857143 Z M367.556157,341.25 L367.556157,335.357143 L373.9625,335.357143 L373.9625,320.357143 L367.501866,320.357143 L367.501866,314.464286 L373.9625,314.464286 L373.9625,312.964286 C373.9625,311.285706 374.261098,309.839292 374.858302,308.625 C375.455507,307.410708 376.242719,306.410718 377.219963,305.625 C378.197206,304.839282 379.328259,304.25893 380.613153,303.883929 C381.898047,303.508927 383.228165,303.321429 384.603545,303.321429 C387.100945,303.321429 389.154936,303.526784 390.765578,303.9375 C392.376221,304.348216 393.706338,304.85714 394.75597,305.464286 L392.69291,310.767857 C391.860444,310.374998 390.96465,310.017859 390.005504,309.696429 C389.046357,309.374998 387.806724,309.214286 386.286567,309.214286 C384.33208,309.214286 382.965769,309.651781 382.187593,310.526786 C381.409418,311.40179 381.020336,312.714277 381.020336,314.464286 L392.421455,314.464286 L392.421455,320.357143 L381.020336,320.357143 L381.020336,335.357143 L392.475746,335.357143 L392.475746,341.25 L367.556157,341.25 Z M400.130784,341.25 L400.130784,335.357143 L406.537127,335.357143 L406.537127,320.357143 L400.076493,320.357143 L400.076493,314.464286 L406.537127,314.464286 L406.537127,312.964286 C406.537127,311.285706 406.835725,309.839292 407.432929,308.625 C408.030134,307.410708 408.817346,306.410718 409.79459,305.625 C410.771833,304.839282 411.902885,304.25893 413.18778,303.883929 C414.472674,303.508927 415.802792,303.321429 417.178172,303.321429 C419.675572,303.321429 421.729563,303.526784 423.340205,303.9375 C424.950848,304.348216 426.280965,304.85714 427.330597,305.464286 L425.267537,310.767857 C424.43507,310.374998 423.539277,310.017859 422.580131,309.696429 C421.620984,309.374998 420.381351,309.214286 418.861194,309.214286 C416.906707,309.214286 415.540396,309.651781 414.76222,310.526786 C413.984045,311.40179 413.594963,312.714277 413.594963,314.464286 L424.996082,314.464286 L424.996082,320.357143 L413.594963,320.357143 L413.594963,335.357143 L425.050373,335.357143 L425.050373,341.25 L400.130784,341.25 Z M457.842164,338.410714 C457.371639,338.839288 456.765396,339.258927 456.023414,339.669643 C455.281433,340.080359 454.412785,340.464284 453.417444,340.821429 C452.422103,341.178573 451.327245,341.464285 450.132836,341.678571 C448.938427,341.892858 447.671648,342 446.332463,342 C444.016033,342 441.943946,341.678575 440.116138,341.035714 C438.28833,340.392854 436.741051,339.455363 435.474254,338.223214 C434.207456,336.991065 433.239276,335.508937 432.569683,333.776786 C431.90009,332.044634 431.565299,330.07144 431.565299,327.857143 C431.565299,325.499988 431.945332,323.437509 432.70541,321.669643 C433.465489,319.901777 434.506057,318.428577 435.827146,317.25 C437.148234,316.071423 438.695514,315.187503 440.46903,314.598214 C442.242546,314.008926 444.160811,313.714286 446.223881,313.714286 C447.599261,313.714286 449.019862,313.892855 450.485728,314.25 C451.951593,314.607145 453.299807,315.22321 454.53041,316.098214 C455.761014,316.973219 456.765388,318.14285 457.543563,319.607143 C458.321739,321.071436 458.710821,322.92856 458.710821,325.178571 C458.710821,326.714293 458.529853,328.374991 458.16791,330.160714 L438.623134,330.160714 C438.659329,331.303577 438.903636,332.267853 439.356063,333.053571 C439.808491,333.83929 440.405687,334.48214 441.147668,334.982143 C441.889649,335.482145 442.7402,335.848213 443.699347,336.080357 C444.658494,336.312501 445.680965,336.428571 446.766791,336.428571 C448.938444,336.428571 450.720982,336.178574 452.114459,335.678571 C453.507936,335.178569 454.638988,334.571432 455.507649,333.857143 L457.842164,338.410714 Z M446.115299,319.285714 C445.174249,319.285714 444.287504,319.410713 443.455037,319.660714 C442.62257,319.910716 441.871552,320.276783 441.201959,320.758929 C440.532366,321.241074 439.980413,321.839282 439.546082,322.553571 C439.111752,323.267861 438.858396,324.071424 438.786007,324.964286 L452.141604,324.964286 C452.141604,323.214277 451.643942,321.830362 450.648601,320.8125 C449.65326,319.794638 448.142174,319.285714 446.115299,319.285714 L446.115299,319.285714 Z M490.416791,338.410714 C489.946266,338.839288 489.340022,339.258927 488.598041,339.669643 C487.85606,340.080359 486.987412,340.464284 485.992071,340.821429 C484.99673,341.178573 483.901872,341.464285 482.707463,341.678571 C481.513054,341.892858 480.246275,342 478.90709,342 C476.59066,342 474.518573,341.678575 472.690765,341.035714 C470.862957,340.392854 469.315678,339.455363 468.048881,338.223214 C466.782083,336.991065 465.813903,335.508937 465.14431,333.776786 C464.474717,332.044634 464.139925,330.07144 464.139925,327.857143 C464.139925,325.499988 464.519959,323.437509 465.280037,321.669643 C466.040116,319.901777 467.080684,318.428577 468.401772,317.25 C469.722861,316.071423 471.27014,315.187503 473.043657,314.598214 C474.817173,314.008926 476.735437,313.714286 478.798507,313.714286 C480.173887,313.714286 481.594489,313.892855 483.060354,314.25 C484.52622,314.607145 485.874434,315.22321 487.105037,316.098214 C488.33564,316.973219 489.340015,318.14285 490.11819,319.607143 C490.896366,321.071436 491.285448,322.92856 491.285448,325.178571 C491.285448,326.714293 491.104479,328.374991 490.742537,330.160714 L471.197761,330.160714 C471.233955,331.303577 471.478263,332.267853 471.93069,333.053571 C472.383118,333.83929 472.980313,334.48214 473.722295,334.982143 C474.464276,335.482145 475.314827,335.848213 476.273974,336.080357 C477.23312,336.312501 478.255592,336.428571 479.341418,336.428571 C481.513071,336.428571 483.295609,336.178574 484.689086,335.678571 C486.082563,335.178569 487.213615,334.571432 488.082276,333.857143 L490.416791,338.410714 Z M478.689925,319.285714 C477.748876,319.285714 476.862131,319.410713 476.029664,319.660714 C475.197197,319.910716 474.446179,320.276783 473.776586,320.758929 C473.106993,321.241074 472.555039,321.839282 472.120709,322.553571 C471.686378,323.267861 471.433023,324.071424 471.360634,324.964286 L484.716231,324.964286 C484.716231,323.214277 484.218568,321.830362 483.223228,320.8125 C482.227887,319.794638 480.716801,319.285714 478.689925,319.285714 L478.689925,319.285714 Z" id="#ITCoffee" fill="#383632"></path>
                <g id="logo-copy-3" transform="translate(267.000000, 110.000000)">
                    <ellipse id="black" fill="#383532" cx="76.3435583" cy="76.5" rx="71.7791411" ry="71.9328358"></ellipse>
                    <path d="M26.7239632,76.7048613 L26.7239632,73.8516114 L53.3572883,57.3027621 L56.6080368,62.4386119 L35.8488712,74.9929114 L56.6080368,87.2618859 L53.3572883,92.3977356 L26.7239632,76.7048613 Z M83.3554233,52.9087573 L88.9444294,55.4196172 L68.5844785,101.528135 L62.9954724,98.9031454 L83.3554233,52.9087573 Z M98.4115215,92.3977356 L95.160773,87.2618859 L115.919939,74.9929114 L95.160773,62.4386119 L98.4115215,57.3027621 L125.044847,73.8516114 L125.044847,76.7048613 L98.4115215,92.3977356 Z" id="&lt;/&gt;" fill="#FFFFFF"></path>
                    <path d="M154.334356,65.4465844 C148.615159,65.4465844 143.978834,70.0856995 143.978834,75.8083381 C143.978834,81.5309767 148.615159,86.1700918 154.334356,86.1700918 L175.521922,86.1700918 C181.241119,86.1700918 185.877444,81.5309767 185.877444,75.8083381 C185.877444,70.0856995 181.241119,65.4465844 175.521922,65.4465844 L154.334356,65.4465844 Z" id="Path-68" fill="#FF4D4D"></path>
                    <path d="M152.610092,76.5 C152.610092,34.2943256 118.465947,0.0770708955 76.3435583,0.0770708955 C34.2211692,0.0770708955 0.0770245399,34.2943256 0.0770245399,76.5 C0.0770245399,118.705674 34.2211692,152.922929 76.3435583,152.922929 C118.465947,152.922929 152.610092,118.705674 152.610092,76.5 Z M9.05180982,76.5 C9.05180982,39.2508579 39.1808974,9.05725746 76.3435583,9.05725746 C113.506219,9.05725746 143.635307,39.2508579 143.635307,76.5 C143.635307,113.749142 113.506219,143.942743 76.3435583,143.942743 C39.1808974,143.942743 9.05180982,113.749142 9.05180982,76.5 Z" id="stroke" fill="#FF4D4D"></path>
                </g>
            </g>
        </g>
    </g>
</svg>