<?xml version="1.0" encoding="UTF-8" standalone="no"?>
<svg width="212px" height="212px" viewBox="0 0 212 212" version="1.1" xmlns="http://www.w3.org/2000/svg" xmlns:xlink="http://www.w3.org/1999/xlink" xmlns:sketch="http://www.bohemiancoding.com/sketch/ns">
    <!-- Generator: Sketch 3.3.2 (12043) - http://www.bohemiancoding.com/sketch -->
    <title>itcoffee</title>
    <desc>Created with Sketch.</desc>
    <defs></defs>
    <g id="Page-1" stroke="none" stroke-width="1" fill="none" fill-rule="evenodd" sketch:type="MSPage">
        <g id="v7" sketch:type="MSArtboardGroup" transform="translate(-904.000000, -4713.000000)">
            <g id="Group-Copy-13" sketch:type="MSLayerGroup" transform="translate(740.000000, 4660.000000)">
                <g id="itcoffee" transform="translate(164.000000, 53.000000)" sketch:type="MSShapeGroup">
                    <rect id="bg-copy-5" fill="#FF4D4D" x="0" y="0" width="212" height="212"></rect>
                    <path d="M105.520682,160.76873 C135.389149,160.76873 159.602325,136.518303 159.602325,106.603884 C159.602325,76.6894655 135.389149,52.4390379 105.520682,52.4390379 C75.6522145,52.4390379 51.4390379,76.6894655 51.4390379,106.603884 C51.4390379,136.518303 75.6522145,160.76873 105.520682,160.76873 Z" id="black" fill="#383532"></path>
                    <path d="M68.1350397,106.758143 L68.1350397,104.609669 L88.2017886,92.1485186 L90.6510491,96.0157721 L75.0101571,105.469058 L90.6510491,114.707497 L88.2017886,118.574751 L68.1350397,106.758143 L68.1350397,106.758143 Z M110.803737,88.8398682 L115.014746,90.7305255 L99.6746406,125.449868 L95.4636311,123.473272 L110.803737,88.8398682 L110.803737,88.8398682 Z M122.147681,118.574751 L119.69842,114.707497 L135.339312,105.469058 L119.69842,96.0157721 L122.147681,92.1485186 L142.21443,104.609669 L142.21443,106.758143 L122.147681,118.574751 L122.147681,118.574751 Z" id="&lt;/&gt;" fill="#FFFFFF"></path>
                    <path d="M161.584793,98.2807512 C157.275692,98.2807512 156.48015,101.773967 156.48015,106.083068 C156.48015,110.392169 157.275692,113.885385 161.584793,113.885385 L180.246136,113.885385 C184.555237,113.885385 188.048453,110.392169 188.048453,106.083068 C188.048453,101.773967 184.555237,98.2807512 180.246136,98.2807512 L161.584793,98.2807512 Z" id="Path-68" fill="#FFFFFF"></path>
                    <path d="M162.983329,106.603884 C162.983329,74.823351 137.25759,49.0580338 105.520682,49.0580338 C73.783773,49.0580338 48.0580338,74.823351 48.0580338,106.603884 C48.0580338,138.384417 73.783773,164.149734 105.520682,164.149734 C137.25759,164.149734 162.983329,138.384417 162.983329,106.603884 L162.983329,106.603884 Z M54.8200419,106.603884 C54.8200419,78.55558 77.5206559,55.8200419 105.520682,55.8200419 C133.520707,55.8200419 156.221321,78.55558 156.221321,106.603884 C156.221321,134.652188 133.520707,157.387726 105.520682,157.387726 C77.5206559,157.387726 54.8200419,134.652188 54.8200419,106.603884 L54.8200419,106.603884 Z" id="stroke" fill="#FFFFFF"></path>
                </g>
            </g>
        </g>
    </g>
</svg>