<?xml version="1.0" encoding="UTF-8" standalone="no"?>
<svg width="81px" height="81px" viewBox="0 0 81 81" version="1.1" xmlns="http://www.w3.org/2000/svg" xmlns:xlink="http://www.w3.org/1999/xlink" xmlns:sketch="http://www.bohemiancoding.com/sketch/ns">
    <!-- Generator: Sketch 3.3.2 (12043) - http://www.bohemiancoding.com/sketch -->
    <title>logo</title>
    <desc>Created with Sketch.</desc>
    <defs></defs>
    <g id="Page-1" stroke="none" stroke-width="1" fill="none" fill-rule="evenodd" sketch:type="MSPage">
        <g id="Artboard-19" sketch:type="MSArtboardGroup" transform="translate(-35.000000, -35.000000)">
            <g id="logo" sketch:type="MSLayerGroup" transform="translate(76.000000, 75.000000) rotate(-180.000000) translate(-76.000000, -75.000000) translate(35.000000, 34.000000)">
                <path d="M2.5,67.5 L2.5,1.5 L14.5,13.5 L14.5,79.5 L2.5,67.5 Z" id="Path-Copy-10" stroke="#000000" stroke-width="3" stroke-linecap="square" stroke-linejoin="round" fill="#FFFFFF" sketch:type="MSShapeGroup"></path>
                <path d="M17.5,1.5 L2.5,1.5 L14.5,13.5 L29.5,13.5 L17.5,1.5 Z" id="Path-Copy-6" stroke="#000000" stroke-width="3" stroke-linecap="square" stroke-linejoin="round" fill="#FFFFFF" sketch:type="MSShapeGroup"></path>
                <path d="M68.5,67.5 L68.5,1.5 L80.5,13.5 L80.5,79.5 L68.5,67.5 Z" id="Path-Copy-7" stroke="#000000" stroke-width="3" stroke-linecap="square" stroke-linejoin="round" fill="#FFFFFF" sketch:type="MSShapeGroup"></path>
                <path d="M68.5,67.5 L53.5,67.5 L65.5,79.5 L80.5,79.5 L68.5,67.5 Z" id="Path-Copy-8" stroke="#000000" stroke-width="3" stroke-linecap="square" stroke-linejoin="round" fill="#FFFFFF" sketch:type="MSShapeGroup" transform="translate(67.000000, 73.500000) rotate(-180.000000) translate(-67.000000, -73.500000) "></path>
                <g id="Group-Copy-10" transform="translate(71.200001, 11.000000)" fill="#000000" sketch:type="MSShapeGroup">
                    <g id="Group-Copy-7" transform="translate(2.625000, 1.941176)">
                        <ellipse id="Oval-1-Copy-10" cx="0.65625" cy="6.66176471" rx="0.65625" ry="0.661764706"></ellipse>
                        <ellipse id="Oval-1-Copy-24" cx="0.65625" cy="1.36764706" rx="0.65625" ry="0.661764706"></ellipse>
                        <ellipse id="Oval-1-Copy-11" cx="0.65625" cy="11.9558824" rx="0.65625" ry="0.661764706"></ellipse>
                        <ellipse id="Oval-1-Copy-12" cx="0.65625" cy="17.25" rx="0.65625" ry="0.661764706"></ellipse>
                        <ellipse id="Oval-1-Copy-13" cx="0.65625" cy="22.5441176" rx="0.65625" ry="0.661764706"></ellipse>
                        <ellipse id="Oval-1-Copy-14" cx="0.65625" cy="27.8382353" rx="0.65625" ry="0.661764706"></ellipse>
                        <ellipse id="Oval-1-Copy-15" cx="0.65625" cy="33.1323529" rx="0.65625" ry="0.661764706"></ellipse>
                        <ellipse id="Oval-1-Copy-16" cx="0.65625" cy="38.4264706" rx="0.65625" ry="0.661764706"></ellipse>
                        <ellipse id="Oval-1-Copy-17" cx="0.65625" cy="43.7205882" rx="0.65625" ry="0.661764706"></ellipse>
                        <ellipse id="Oval-1-Copy-18" cx="0.65625" cy="49.0147059" rx="0.65625" ry="0.661764706"></ellipse>
                        <ellipse id="Oval-1-Copy-19" cx="0.65625" cy="54.3088235" rx="0.65625" ry="0.661764706"></ellipse>
                    </g>
                    <g id="Group-Copy-6">
                        <ellipse id="Oval-1-Copy-9" cx="0.65625" cy="0.661764706" rx="0.65625" ry="0.661764706"></ellipse>
                        <ellipse id="Oval-1-Copy-10" cx="0.65625" cy="5.95588235" rx="0.65625" ry="0.661764706"></ellipse>
                        <ellipse id="Oval-1-Copy-11" cx="0.65625" cy="11.25" rx="0.65625" ry="0.661764706"></ellipse>
                        <ellipse id="Oval-1-Copy-12" cx="0.65625" cy="16.5441176" rx="0.65625" ry="0.661764706"></ellipse>
                        <ellipse id="Oval-1-Copy-13" cx="0.65625" cy="21.8382353" rx="0.65625" ry="0.661764706"></ellipse>
                        <ellipse id="Oval-1-Copy-14" cx="0.65625" cy="27.1323529" rx="0.65625" ry="0.661764706"></ellipse>
                        <ellipse id="Oval-1-Copy-15" cx="0.65625" cy="32.4264706" rx="0.65625" ry="0.661764706"></ellipse>
                        <ellipse id="Oval-1-Copy-16" cx="0.65625" cy="37.7205882" rx="0.65625" ry="0.661764706"></ellipse>
                        <ellipse id="Oval-1-Copy-17" cx="0.65625" cy="43.0147059" rx="0.65625" ry="0.661764706"></ellipse>
                        <ellipse id="Oval-1-Copy-18" cx="0.65625" cy="48.3088235" rx="0.65625" ry="0.661764706"></ellipse>
                        <ellipse id="Oval-1-Copy-19" cx="0.65625" cy="53.6029412" rx="0.65625" ry="0.661764706"></ellipse>
                    </g>
                    <g id="Group-Copy-8" transform="translate(5.250000, 4.588235)">
                        <ellipse id="Oval-1-Copy-10" cx="0.65625" cy="6.66176471" rx="0.65625" ry="0.661764706"></ellipse>
                        <ellipse id="Oval-1-Copy-25" cx="0.65625" cy="1.36764706" rx="0.65625" ry="0.661764706"></ellipse>
                        <ellipse id="Oval-1-Copy-11" cx="0.65625" cy="11.9558824" rx="0.65625" ry="0.661764706"></ellipse>
                        <ellipse id="Oval-1-Copy-12" cx="0.65625" cy="17.25" rx="0.65625" ry="0.661764706"></ellipse>
                        <ellipse id="Oval-1-Copy-13" cx="0.65625" cy="22.5441176" rx="0.65625" ry="0.661764706"></ellipse>
                        <ellipse id="Oval-1-Copy-14" cx="0.65625" cy="27.8382353" rx="0.65625" ry="0.661764706"></ellipse>
                        <ellipse id="Oval-1-Copy-15" cx="0.65625" cy="33.1323529" rx="0.65625" ry="0.661764706"></ellipse>
                        <ellipse id="Oval-1-Copy-16" cx="0.65625" cy="38.4264706" rx="0.65625" ry="0.661764706"></ellipse>
                        <ellipse id="Oval-1-Copy-17" cx="0.65625" cy="43.7205882" rx="0.65625" ry="0.661764706"></ellipse>
                        <ellipse id="Oval-1-Copy-18" cx="0.65625" cy="49.0147059" rx="0.65625" ry="0.661764706"></ellipse>
                        <ellipse id="Oval-1-Copy-19" cx="0.65625" cy="54.3088235" rx="0.65625" ry="0.661764706"></ellipse>
                    </g>
                </g>
                <g id="Group-Copy-11" transform="translate(5.199997, 11.000000)" fill="#000000" sketch:type="MSShapeGroup">
                    <g id="Group-Copy-7" transform="translate(2.625000, 1.941176)">
                        <ellipse id="Oval-1-Copy-10" cx="0.65625" cy="6.66176471" rx="0.65625" ry="0.661764706"></ellipse>
                        <ellipse id="Oval-1-Copy-24" cx="0.65625" cy="1.36764706" rx="0.65625" ry="0.661764706"></ellipse>
                        <ellipse id="Oval-1-Copy-11" cx="0.65625" cy="11.9558824" rx="0.65625" ry="0.661764706"></ellipse>
                        <ellipse id="Oval-1-Copy-12" cx="0.65625" cy="17.25" rx="0.65625" ry="0.661764706"></ellipse>
                        <ellipse id="Oval-1-Copy-13" cx="0.65625" cy="22.5441176" rx="0.65625" ry="0.661764706"></ellipse>
                        <ellipse id="Oval-1-Copy-14" cx="0.65625" cy="27.8382353" rx="0.65625" ry="0.661764706"></ellipse>
                        <ellipse id="Oval-1-Copy-15" cx="0.65625" cy="33.1323529" rx="0.65625" ry="0.661764706"></ellipse>
                        <ellipse id="Oval-1-Copy-16" cx="0.65625" cy="38.4264706" rx="0.65625" ry="0.661764706"></ellipse>
                        <ellipse id="Oval-1-Copy-17" cx="0.65625" cy="43.7205882" rx="0.65625" ry="0.661764706"></ellipse>
                        <ellipse id="Oval-1-Copy-18" cx="0.65625" cy="49.0147059" rx="0.65625" ry="0.661764706"></ellipse>
                        <ellipse id="Oval-1-Copy-19" cx="0.65625" cy="54.3088235" rx="0.65625" ry="0.661764706"></ellipse>
                    </g>
                    <g id="Group-Copy-6">
                        <ellipse id="Oval-1-Copy-9" cx="0.65625" cy="0.661764706" rx="0.65625" ry="0.661764706"></ellipse>
                        <ellipse id="Oval-1-Copy-10" cx="0.65625" cy="5.95588235" rx="0.65625" ry="0.661764706"></ellipse>
                        <ellipse id="Oval-1-Copy-11" cx="0.65625" cy="11.25" rx="0.65625" ry="0.661764706"></ellipse>
                        <ellipse id="Oval-1-Copy-12" cx="0.65625" cy="16.5441176" rx="0.65625" ry="0.661764706"></ellipse>
                        <ellipse id="Oval-1-Copy-13" cx="0.65625" cy="21.8382353" rx="0.65625" ry="0.661764706"></ellipse>
                        <ellipse id="Oval-1-Copy-14" cx="0.65625" cy="27.1323529" rx="0.65625" ry="0.661764706"></ellipse>
                        <ellipse id="Oval-1-Copy-15" cx="0.65625" cy="32.4264706" rx="0.65625" ry="0.661764706"></ellipse>
                        <ellipse id="Oval-1-Copy-16" cx="0.65625" cy="37.7205882" rx="0.65625" ry="0.661764706"></ellipse>
                        <ellipse id="Oval-1-Copy-17" cx="0.65625" cy="43.0147059" rx="0.65625" ry="0.661764706"></ellipse>
                        <ellipse id="Oval-1-Copy-18" cx="0.65625" cy="48.3088235" rx="0.65625" ry="0.661764706"></ellipse>
                        <ellipse id="Oval-1-Copy-19" cx="0.65625" cy="53.6029412" rx="0.65625" ry="0.661764706"></ellipse>
                    </g>
                    <g id="Group-Copy-8" transform="translate(5.250000, 4.588235)">
                        <ellipse id="Oval-1-Copy-10" cx="0.65625" cy="6.66176471" rx="0.65625" ry="0.661764706"></ellipse>
                        <ellipse id="Oval-1-Copy-25" cx="0.65625" cy="1.36764706" rx="0.65625" ry="0.661764706"></ellipse>
                        <ellipse id="Oval-1-Copy-11" cx="0.65625" cy="11.9558824" rx="0.65625" ry="0.661764706"></ellipse>
                        <ellipse id="Oval-1-Copy-12" cx="0.65625" cy="17.25" rx="0.65625" ry="0.661764706"></ellipse>
                        <ellipse id="Oval-1-Copy-13" cx="0.65625" cy="22.5441176" rx="0.65625" ry="0.661764706"></ellipse>
                        <ellipse id="Oval-1-Copy-14" cx="0.65625" cy="27.8382353" rx="0.65625" ry="0.661764706"></ellipse>
                        <ellipse id="Oval-1-Copy-15" cx="0.65625" cy="33.1323529" rx="0.65625" ry="0.661764706"></ellipse>
                        <ellipse id="Oval-1-Copy-16" cx="0.65625" cy="38.4264706" rx="0.65625" ry="0.661764706"></ellipse>
                        <ellipse id="Oval-1-Copy-17" cx="0.65625" cy="43.7205882" rx="0.65625" ry="0.661764706"></ellipse>
                        <ellipse id="Oval-1-Copy-18" cx="0.65625" cy="49.0147059" rx="0.65625" ry="0.661764706"></ellipse>
                        <ellipse id="Oval-1-Copy-19" cx="0.65625" cy="54.3088235" rx="0.65625" ry="0.661764706"></ellipse>
                    </g>
                </g>
                <g id="Group-Copy-12" transform="translate(67.599998, 73.500000) rotate(-90.000000) translate(-67.599998, -73.500000) translate(63.099998, 66.500000)" fill="#000000" sketch:type="MSShapeGroup">
                    <ellipse id="Oval-1-Copy-11" cx="4.28125" cy="3.89705882" rx="0.65625" ry="0.661764706"></ellipse>
                    <ellipse id="Oval-1-Copy-12" cx="4.28125" cy="9.19117647" rx="0.65625" ry="0.661764706"></ellipse>
                    <ellipse id="Oval-1-Copy-12" cx="1.65625" cy="6.54411765" rx="0.65625" ry="0.661764706"></ellipse>
                    <ellipse id="Oval-1-Copy-13" cx="1.65625" cy="11.8382353" rx="0.65625" ry="0.661764706"></ellipse>
                    <ellipse id="Oval-1-Copy-10" cx="6.90625" cy="1.25" rx="0.65625" ry="0.661764706"></ellipse>
                    <ellipse id="Oval-1-Copy-11" cx="6.90625" cy="6.54411765" rx="0.65625" ry="0.661764706"></ellipse>
                </g>
                <g id="Group-Copy-13" transform="translate(16.500000, 7.500000) rotate(-90.000000) translate(-16.500000, -7.500000) translate(12.000000, 0.500000)" fill="#000000" sketch:type="MSShapeGroup">
                    <ellipse id="Oval-1-Copy-11" cx="4.28125" cy="3.89705882" rx="0.65625" ry="0.661764706"></ellipse>
                    <ellipse id="Oval-1-Copy-12" cx="4.28125" cy="9.19117647" rx="0.65625" ry="0.661764706"></ellipse>
                    <ellipse id="Oval-1-Copy-12" cx="1.65625" cy="6.54411765" rx="0.65625" ry="0.661764706"></ellipse>
                    <ellipse id="Oval-1-Copy-13" cx="1.65625" cy="11.8382353" rx="0.65625" ry="0.661764706"></ellipse>
                    <ellipse id="Oval-1-Copy-10" cx="6.90625" cy="1.25" rx="0.65625" ry="0.661764706"></ellipse>
                    <ellipse id="Oval-1-Copy-11" cx="6.90625" cy="6.54411765" rx="0.65625" ry="0.661764706"></ellipse>
                </g>
                <path d="M14.5,13.5 L29.5,13.5 L56.5,40.5 L56.5,1.5 L67.9996527,1.5 C68.2759869,1.5 68.5,1.72604289 68.5,1.99330401 L68.5,67.5 L53.5,67.5 L26.5,40.5 L26.5,79.5 L15.0003473,79.5 C14.7240131,79.5 14.5,79.2739571 14.5,79.006696 L14.5,13.5 Z" id="Stroke-1-Copy" stroke="#000000" stroke-width="3" stroke-linecap="square" fill="#FFFFFF" sketch:type="MSShapeGroup"></path>
                <path d="M26.5480256,41.6590837 L26.5,25.5 L56.5,55.5 L56.5,39.2826454" id="Path-Copy-9" stroke="#000000" stroke-width="3" stroke-linecap="square" sketch:type="MSShapeGroup"></path>
                <rect id="Rectangle-4-Copy" fill="#000000" sketch:type="MSShapeGroup" x="1" y="1.42108547e-14" width="3" height="3"></rect>
                <rect id="Rectangle-4-Copy-4" fill="#000000" sketch:type="MSShapeGroup" x="79" y="78" width="3" height="3"></rect>
            </g>
        </g>
    </g>
</svg>