<?xml version="1.0" encoding="UTF-8" standalone="no"?>
<svg width="200px" height="234px" viewBox="0 0 200 234" version="1.1" xmlns="http://www.w3.org/2000/svg" xmlns:xlink="http://www.w3.org/1999/xlink" xmlns:sketch="http://www.bohemiancoding.com/sketch/ns">
    <!-- Generator: Sketch 3.3.2 (12043) - http://www.bohemiancoding.com/sketch -->
    <title>logo-full copy + BICYCLE.DIGITAL Copy</title>
    <desc>Created with Sketch.</desc>
    <defs>
        <circle id="path-1" cx="100" cy="100" r="100"></circle>
    </defs>
    <g id="Page-1" stroke="none" stroke-width="1" fill="none" fill-rule="evenodd" sketch:type="MSPage">
        <g id="cover-business-card-front" sketch:type="MSArtboardGroup" transform="translate(-145.000000, -61.000000)">
            <g id="logo-full-copy-+-BICYCLE.DIGITAL-Copy" sketch:type="MSLayerGroup" transform="translate(145.000000, 61.000000)">
                <g id="logo-full-copy">
                    <g id="circle-bg">
                        <g id="Oval">
                            <use fill="none" sketch:type="MSShapeGroup" xlink:href="#path-1"></use>
                            <use fill="#FFF205" fill-rule="evenodd" xlink:href="#path-1"></use>
                        </g>
                    </g>
                    <rect id="Rectangle-5" fill="#FFF205" sketch:type="MSShapeGroup" x="0" y="0" width="200" height="200"></rect>
                    <g id="inside" transform="translate(38.000000, 72.000000)" fill="#1C1C1C" sketch:type="MSShapeGroup">
                        <circle id="Oval" cx="100" cy="33" r="24"></circle>
                        <circle id="Oval" cx="24" cy="33" r="24"></circle>
                        <path d="M100,33 L61.901,32.983 L42.858,0 L81,0 L100,33 Z" id="Shape"></path>
                    </g>
                    <g id="frame" transform="translate(38.000000, 52.000000)" stroke="#FFF205" stroke-width="4" sketch:type="MSShapeGroup">
                        <circle id="Oval" cx="100" cy="53" r="24"></circle>
                        <circle id="Oval" cx="24" cy="53" r="24"></circle>
                        <path d="M100,53 L61.901,52.983 L42.858,20 L81,20 L100,53 Z" id="Shape" stroke-linejoin="bevel"></path>
                        <path d="M61.901,52.983 L91.952,0.933" id="Shape"></path>
                        <path d="M36,20 L33,20 C29.134,20 26,16.866 26,13 C26,9.134 29.134,6 33,6 L50.95,6 L23.856,52.983" id="Shape"></path>
                        <path d="M81,1 L97,1" id="Shape"></path>
                    </g>
                </g>
                <path d="M8.71416746,224.220435 C8.71416746,224.503824 8.67874437,224.787209 8.60789713,225.070598 C8.53704988,225.353987 8.4198812,225.612848 8.25638756,225.847189 C8.09289392,226.08153 7.88035537,226.288619 7.61876555,226.468462 C7.35717573,226.648305 7.04109276,226.781823 6.67050718,226.869019 L6.67050718,226.967115 C6.99749446,227.021613 7.30812772,227.114258 7.60241627,227.245053 C7.89670482,227.375848 8.15284102,227.555688 8.37083254,227.784579 C8.58882406,228.01347 8.7604898,228.291405 8.88583493,228.618392 C9.01118005,228.94538 9.07385167,229.332309 9.07385167,229.779191 C9.07385167,230.367768 8.94850843,230.877316 8.69781818,231.307849 C8.44712793,231.738383 8.111971,232.089889 7.69233732,232.362378 C7.27270364,232.634867 6.79585435,232.836507 6.26177512,232.967301 C5.72769589,233.098096 5.17727556,233.163493 4.61049761,233.163493 L3.89930383,233.163493 C3.61046506,233.163493 3.29983181,233.155318 2.96739474,233.138969 C2.63495767,233.12262 2.29707588,233.098096 1.95373923,233.065397 C1.61040259,233.032698 1.29704448,232.983651 1.0136555,232.918254 L1.0136555,221.637249 C1.22074745,221.60455 1.45780967,221.571852 1.72484928,221.539153 C1.99188889,221.506454 2.27799847,221.479206 2.5831866,221.457407 C2.88837473,221.435608 3.20173284,221.419258 3.52327033,221.408359 C3.84480783,221.397459 4.16361564,221.39201 4.47970335,221.39201 C5.01378257,221.39201 5.53422952,221.432882 6.04105981,221.514629 C6.54789009,221.596376 7.00021571,221.740793 7.39805024,221.947885 C7.79588476,222.154977 8.11469258,222.443812 8.35448325,222.814397 C8.59427393,223.184983 8.71416746,223.653657 8.71416746,224.220435 L8.71416746,224.220435 Z M4.62684689,231.316024 C4.89933629,231.316024 5.16364704,231.283326 5.41978708,231.217928 C5.67592712,231.152531 5.90208993,231.051711 6.0982823,230.915467 C6.29447467,230.779222 6.45251615,230.607556 6.57241148,230.400464 C6.69230682,230.193372 6.75225359,229.948135 6.75225359,229.664746 C6.75225359,229.30506 6.68140741,229.021676 6.53971292,228.814584 C6.39801843,228.607492 6.21272842,228.446725 5.98383732,228.33228 C5.75494622,228.217834 5.49881003,228.144263 5.21542105,228.111565 C4.93203208,228.078866 4.64864735,228.062517 4.36525837,228.062517 L3.17176077,228.062517 L3.17176077,231.217928 C3.22625865,231.239727 3.31345395,231.256077 3.43334928,231.266976 C3.55324462,231.277876 3.68131272,231.28605 3.81755742,231.2915 C3.95380212,231.29695 4.09549448,231.302399 4.24263876,231.307849 C4.38978303,231.313299 4.51785113,231.316024 4.62684689,231.316024 L4.62684689,231.316024 Z M3.89112919,226.362191 C4.04372325,226.362191 4.2208387,226.356742 4.42248086,226.345842 C4.62412302,226.334943 4.79033906,226.318593 4.92113397,226.296794 C5.33531786,226.165999 5.69227362,225.96981 5.99201196,225.70822 C6.2917503,225.44663 6.44161722,225.103299 6.44161722,224.678215 C6.44161722,224.394826 6.38712016,224.160489 6.2781244,223.975196 C6.16912864,223.789903 6.02471143,223.642761 5.84486842,223.533766 C5.66502542,223.42477 5.46066143,223.348474 5.23177033,223.304876 C5.00287924,223.261277 4.76309216,223.239478 4.51240191,223.239478 C4.22901294,223.239478 3.96742704,223.244928 3.72763636,223.255828 C3.48784569,223.266727 3.30255568,223.283076 3.17176077,223.304876 L3.17176077,226.362191 L3.89112919,226.362191 Z M14.5393206,231.005388 L17.4331435,231.005388 L17.4331435,223.550115 L14.5393206,223.550115 L14.5393206,221.555502 L22.5831675,221.555502 L22.5831675,223.550115 L19.6729952,223.550115 L19.6729952,231.005388 L22.5831675,231.005388 L22.5831675,233 L14.5393206,233 L14.5393206,231.005388 Z M34.572,229.157919 L36.3704211,229.157919 L36.3704211,232.427775 C36.0216346,232.678465 35.5774836,232.874655 35.0379545,233.016349 C34.4984255,233.158044 33.9452803,233.22889 33.3785024,233.22889 C32.6591304,233.22889 31.9751922,233.122621 31.3266675,232.910079 C30.6781427,232.697537 30.1086484,232.354206 29.6181675,231.880074 C29.1276865,231.405943 28.7353077,230.790126 28.4410191,230.032605 C28.1467306,229.275085 27.9995885,228.356809 27.9995885,227.277751 C27.9995885,226.155095 28.1658046,225.215021 28.4982416,224.4575 C28.8306787,223.699979 29.2584806,223.089612 29.7816603,222.62638 C30.3048399,222.163148 30.8879585,221.830716 31.5310335,221.629074 C32.1741085,221.427432 32.8062744,221.326612 33.4275502,221.326612 C34.0815248,221.326612 34.63467,221.38111 35.0870024,221.490105 C35.5393348,221.599101 35.9126397,221.724444 36.2069282,221.866139 L36.2069282,225.266789 L34.4085072,225.266789 L34.4085072,223.402971 C34.0706203,223.348473 33.7218391,223.321225 33.3621531,223.321225 C32.9370696,223.321225 32.5419659,223.400246 32.1768301,223.558289 C31.8116943,223.716333 31.4928865,223.958845 31.2203971,224.285833 C30.9479077,224.61282 30.7353692,225.024273 30.5827751,225.520203 C30.4301811,226.016134 30.3538852,226.601977 30.3538852,227.277751 C30.3538852,227.866328 30.4247313,228.403124 30.5664258,228.888156 C30.7081203,229.373187 30.9152092,229.790089 31.1876986,230.138876 C31.460188,230.487662 31.79262,230.757422 32.1850048,230.948165 C32.5773895,231.138908 33.0242654,231.234278 33.5256459,231.234278 C33.8853319,231.234278 34.2341131,231.201579 34.572,231.136182 L34.572,229.157919 Z M44.7624115,228.781885 L41.0674737,221.555502 L43.7324067,221.555502 L45.9395598,226.280445 L46.0213062,226.280445 L48.2775072,221.555502 L50.6808517,221.555502 L47.0022632,228.765536 L47.0022632,233 L44.7624115,233 L44.7624115,228.781885 Z M61.8849187,229.157919 L63.6833397,229.157919 L63.6833397,232.427775 C63.3345533,232.678465 62.8904022,232.874655 62.3508732,233.016349 C61.8113442,233.158044 61.258199,233.22889 60.6914211,233.22889 C59.972049,233.22889 59.2881109,233.122621 58.6395861,232.910079 C57.9910614,232.697537 57.421567,232.354206 56.9310861,231.880074 C56.4406052,231.405943 56.0482264,230.790126 55.7539378,230.032605 C55.4596492,229.275085 55.3125072,228.356809 55.3125072,227.277751 C55.3125072,226.155095 55.4787232,225.215021 55.8111603,224.4575 C56.1435974,223.699979 56.5713993,223.089612 57.0945789,222.62638 C57.6177586,222.163148 58.2008772,221.830716 58.8439522,221.629074 C59.4870271,221.427432 60.1191931,221.326612 60.7404689,221.326612 C61.3944435,221.326612 61.9475886,221.38111 62.3999211,221.490105 C62.8522535,221.599101 63.2255583,221.724444 63.5198469,221.866139 L63.5198469,225.266789 L61.7214258,225.266789 L61.7214258,223.402971 C61.383539,223.348473 61.0347578,223.321225 60.6750718,223.321225 C60.2499883,223.321225 59.8548846,223.400246 59.4897488,223.558289 C59.124613,223.716333 58.8058052,223.958845 58.5333158,224.285833 C58.2608264,224.61282 58.0482878,225.024273 57.8956938,225.520203 C57.7430997,226.016134 57.6668038,226.601977 57.6668038,227.277751 C57.6668038,227.866328 57.73765,228.403124 57.8793445,228.888156 C58.021039,229.373187 58.2281278,229.790089 58.5006172,230.138876 C58.7731066,230.487662 59.1055387,230.757422 59.4979234,230.948165 C59.8903082,231.138908 60.3371841,231.234278 60.8385646,231.234278 C61.1982506,231.234278 61.5470318,231.201579 61.8849187,231.136182 L61.8849187,229.157919 Z M75.0508995,228.340455 L77.0782105,228.340455 L77.0782105,233 L69.5575407,233 L69.5575407,221.555502 L71.7973923,221.555502 L71.7973923,231.005388 L75.0508995,231.005388 L75.0508995,228.340455 Z M83.0832057,221.555502 L90.5875263,221.555502 L90.5875263,223.550115 L85.3230574,223.550115 L85.3230574,226.215048 L90.1787943,226.215048 L90.1787943,228.20966 L85.3230574,228.20966 L85.3230574,231.005388 L90.6692727,231.005388 L90.6692727,233 L83.0832057,233 L83.0832057,221.555502 Z M99.1757081,231.920947 C99.1757081,231.539462 99.2956017,231.237004 99.5353923,231.013562 C99.775183,230.790121 100.091266,230.678402 100.483651,230.678402 C100.897835,230.678402 101.224817,230.790121 101.464608,231.013562 C101.704398,231.237004 101.824292,231.539462 101.824292,231.920947 C101.824292,232.302433 101.704398,232.607616 101.464608,232.836507 C101.224817,233.065398 100.897835,233.179842 100.483651,233.179842 C100.091266,233.179842 99.775183,233.065398 99.5353923,232.836507 C99.2956017,232.607616 99.1757081,232.302433 99.1757081,231.920947 L99.1757081,231.920947 Z M110.069139,221.555502 C110.167235,221.544603 110.338901,221.528254 110.584141,221.506455 C110.829382,221.484655 111.107317,221.465581 111.417955,221.449232 C111.728592,221.432883 112.050125,221.419258 112.382562,221.408359 C112.714999,221.397459 113.012008,221.39201 113.273598,221.39201 C114.287259,221.39201 115.126513,221.539152 115.791388,221.83344 C116.456262,222.127729 116.982158,222.533732 117.369093,223.051462 C117.756028,223.569192 118.025789,224.179559 118.178383,224.882581 C118.330977,225.585604 118.407273,226.351288 118.407273,227.179656 C118.407273,227.931726 118.330977,228.667437 118.178383,229.386809 C118.025789,230.106181 117.750579,230.746521 117.352744,231.307849 C116.954909,231.869177 116.404489,232.321503 115.701467,232.66484 C114.998444,233.008176 114.096517,233.179842 112.99566,233.179842 C112.821267,233.179842 112.597829,233.174392 112.32534,233.163493 C112.05285,233.152593 111.774915,233.138969 111.491526,233.12262 C111.208137,233.10627 110.935652,233.089921 110.674062,233.073572 C110.412472,233.057222 110.210833,233.038148 110.069139,233.016349 L110.069139,221.555502 Z M113.355344,223.386622 C113.148253,223.386622 112.946613,223.394797 112.750421,223.411146 C112.554229,223.427495 112.407087,223.44112 112.30899,223.452019 L112.30899,231.119833 C112.352589,231.130732 112.417985,231.138907 112.505182,231.144356 C112.592378,231.149806 112.682299,231.155256 112.774945,231.160706 C112.867591,231.166156 112.957512,231.171605 113.044708,231.177055 C113.131905,231.182505 113.202751,231.18523 113.257249,231.18523 C113.889424,231.18523 114.393522,231.068061 114.769557,230.83372 C115.145593,230.599379 115.426253,230.291471 115.611545,229.909986 C115.796838,229.5285 115.916732,229.097974 115.97123,228.618392 C116.025728,228.138811 116.052976,227.659237 116.052976,227.179656 C116.052976,226.765472 116.028452,226.334945 115.979404,225.888062 C115.930356,225.44118 115.815912,225.032452 115.636069,224.661866 C115.456226,224.29128 115.186466,223.986097 114.82678,223.746306 C114.467094,223.506516 113.97662,223.386622 113.355344,223.386622 L113.355344,223.386622 Z M123.790995,231.005388 L126.684818,231.005388 L126.684818,223.550115 L123.790995,223.550115 L123.790995,221.555502 L131.834842,221.555502 L131.834842,223.550115 L128.92467,223.550115 L128.92467,231.005388 L131.834842,231.005388 L131.834842,233 L123.790995,233 L123.790995,231.005388 Z M141.845411,227.032512 L145.75289,227.032512 L145.75289,232.198885 C145.382304,232.536772 144.900005,232.792908 144.305978,232.967301 C143.711952,233.141695 143.104309,233.22889 142.483033,233.22889 C141.752762,233.22889 141.068824,233.103547 140.431199,232.852856 C139.793573,232.602166 139.240428,232.223412 138.771746,231.716581 C138.303065,231.209751 137.932485,230.583035 137.659995,229.836414 C137.387506,229.089793 137.251263,228.215115 137.251263,227.212354 C137.251263,226.155095 137.414754,225.255894 137.741742,224.514722 C138.068729,223.773551 138.491081,223.165909 139.008811,222.691778 C139.526541,222.217646 140.106935,221.87159 140.75001,221.653598 C141.393085,221.435607 142.0307,221.326612 142.662876,221.326612 C143.31685,221.326612 143.861821,221.378385 144.297804,221.481931 C144.733787,221.585477 145.131615,221.718994 145.491301,221.882488 L145.491301,225.266789 L143.69288,225.266789 L143.69288,223.452019 C143.605684,223.43022 143.518488,223.408421 143.431292,223.386622 C143.2133,223.343024 142.973513,223.321225 142.711923,223.321225 C142.265041,223.321225 141.850863,223.397521 141.469378,223.550115 C141.087893,223.702709 140.758186,223.939771 140.480246,224.261309 C140.202307,224.582846 139.987044,224.994299 139.83445,225.495679 C139.681856,225.99706 139.60556,226.596528 139.60556,227.2941 C139.60556,227.915376 139.681856,228.471246 139.83445,228.961727 C139.987044,229.452208 140.199582,229.866386 140.472072,230.204273 C140.744561,230.54216 141.068819,230.798296 141.444854,230.972689 C141.820889,231.147082 142.226893,231.234278 142.662876,231.234278 C142.946265,231.234278 143.205126,231.201579 143.439467,231.136182 C143.673807,231.070784 143.834574,231.005388 143.92177,230.93999 L143.92177,228.66744 L141.845411,228.66744 L141.845411,227.032512 Z M151.103914,231.005388 L153.997737,231.005388 L153.997737,223.550115 L151.103914,223.550115 L151.103914,221.555502 L159.147761,221.555502 L159.147761,223.550115 L156.237589,223.550115 L156.237589,231.005388 L159.147761,231.005388 L159.147761,233 L151.103914,233 L151.103914,231.005388 Z M165.806727,231.201579 L167.670545,231.201579 L167.670545,223.353923 L166.101014,223.353923 L166.101014,225.332187 L164.302593,225.332187 L164.302593,221.555502 L173.262,221.555502 L173.262,225.332187 L171.463579,225.332187 L171.463579,223.353923 L169.910397,223.353923 L169.910397,231.201579 L171.757866,231.201579 L171.757866,233 L165.806727,233 L165.806727,231.201579 Z M184.073684,230.465861 L180.656684,230.465861 L179.871919,233 L177.632067,233 L181.327005,221.555502 L183.566856,221.555502 L187.245445,233 L184.891148,233 L184.073684,230.465861 Z M181.179861,228.66744 L183.632254,228.66744 L182.471455,224.841708 L182.324311,224.841708 L181.179861,228.66744 Z M197.959033,228.340455 L199.986344,228.340455 L199.986344,233 L192.465675,233 L192.465675,221.555502 L194.705526,221.555502 L194.705526,231.005388 L197.959033,231.005388 L197.959033,228.340455 Z" id="BICYCLE.DIGITAL-Copy" fill="#FFFFFF" sketch:type="MSShapeGroup"></path>
            </g>
        </g>
    </g>
</svg>