<?xml version="1.0" encoding="UTF-8" standalone="no"?>
<svg width="695px" height="446px" viewBox="0 0 695 446" version="1.1" xmlns="http://www.w3.org/2000/svg" xmlns:xlink="http://www.w3.org/1999/xlink" xmlns:sketch="http://www.bohemiancoding.com/sketch/ns">
    <!-- Generator: Sketch 3.3.2 (12043) - http://www.bohemiancoding.com/sketch -->
    <title>primotaxi-stroke</title>
    <desc>Created with Sketch.</desc>
    <defs>
        <path id="path-1" d="M347.274758,172.803839 C347.274758,172.803839 354.251061,169.935784 355.71545,172.803839 C357.179839,175.671893 352.515488,177.132195 352.515488,177.132195 C352.515488,177.132195 347.892964,177.634897 347.274758,176.021296 C346.656552,174.407695 347.274758,172.803839 347.274758,172.803839 Z"></path>
    </defs>
    <g id="Page-1" stroke="none" stroke-width="1" fill="none" fill-rule="evenodd" sketch:type="MSPage">
        <g id="v7" sketch:type="MSArtboardGroup" transform="translate(-372.000000, -3998.000000)">
            <g id="Group-Copy-10" sketch:type="MSLayerGroup" transform="translate(160.000000, 3920.000000)">
                <g id="primotaxi-stroke" transform="translate(212.000000, 78.000000)">
                    <rect id="bg" stroke-opacity="0.0140681612" stroke="#FFFFFF" sketch:type="MSShapeGroup" x="0" y="0" width="695" height="446"></rect>
                    <path d="M275.810514,229.268512 C246.171011,243.826928 247.002346,292.494771 247.002346,292.494771 C247.002346,292.494771 252.495954,314.44775 263.680794,324.202117 C274.865635,333.956484 299.606402,339.423725 316.569391,331.23456 C333.53238,323.045395 344.291785,303.625854 346.925456,287.384308 C349.559127,271.142761 347.621364,253.89818 338.095556,240.283915 C328.569747,226.66965 305.450017,214.710096 275.810514,229.268512 Z M310.587628,242.37384 C310.587628,242.37384 338.818836,242.37384 335.741473,281.281515 C333.214591,315.109967 305.548939,317.86515 305.548939,317.86515 C305.548939,317.86515 276.68218,319.226387 278.868816,281.281516 C281.055451,243.336644 310.587628,242.37384 310.587628,242.37384 Z" id="Path-349" stroke="#232323" fill="#FFFFFF" sketch:type="MSShapeGroup"></path>
                    <path d="M570.811652,192.78935 L546,243.925151 C546,243.925151 549.738716,266.014013 563.482462,273.17438 C577.226207,280.334747 590.169997,277.367227 594.687225,273.17438 C599.204453,268.981533 612,254.299886 612,230.066923 C612,211.580077 604.790151,198.55329 601.625761,196.034017 C593.812786,189.813857 579.488084,188.884344 570.811652,192.78935 Z M589.596603,204.981133 C589.596603,204.981133 607.7718,204.170189 605.640452,233.316936 C603.509104,262.463683 586.766926,263.191751 586.766926,263.191751 C586.766926,263.191751 570.333356,263.901995 571.554732,234.441564 C572.776109,204.981133 589.596603,204.981133 589.596603,204.981133 Z" id="Path-349-Copy" stroke="#232323" fill="#FFFFFF" sketch:type="MSShapeGroup"></path>
                    <path d="M135.965797,298.907321 C135.965797,298.907321 138.206621,298.015738 130.989519,295.762852 C123.772417,293.509966 76.4809159,279.487477 76.4809159,279.487477 L70.1725095,279.487477 L67.3433757,276.452018 C67.3433757,276.452018 66.1667558,273.972248 68.1696327,272.064119 C70.1725095,270.15599 72.4892141,270.828665 72.4892142,267.348302 C72.4892143,263.867938 64.0261693,239.285599 69.1804391,222.017607 C71.046418,215.766147 70.8916206,216.18563 72.4892143,210.459822 C75.3045477,200.36961 80.13132,184.899439 86.5262147,178.168747 C96.5499667,167.618646 113.810489,153.89926 151.914805,144.643992 C190.019121,135.388724 196.183255,134.003491 196.183255,134.003491 C196.183255,134.003491 210.982805,127.319279 218.63365,121.661361 C226.284495,116.003444 265.988863,88.478704 290.230409,78.7182648 C314.471955,68.9578256 323.291939,69.8050951 350.703613,65.4818933 C378.115288,61.1586915 456.579741,62.4304819 503.430937,65.7087772 C550.282134,68.9870725 571.361981,99.1112294 583.038267,107.139019 C594.714553,115.166808 597.439702,117.578336 607.43254,118.586906 C617.425378,119.595476 618.366842,121.613503 618.366842,121.613503 C618.366842,121.613503 620.421223,128.843653 622.33044,130.474383 C624.239656,132.105113 627.128706,134.502456 628.372795,136.250173 C629.616884,137.997891 631.633773,146.776344 630.629544,150.819488 C629.625315,154.862632 628.621027,158.327039 628.621047,161.756887 C628.621067,165.186736 631.865163,172.247614 631.865183,176.064754 C631.865202,179.881893 634.060084,190.154603 632.344824,195.711482 C630.629564,201.26836 628.665993,209.382128 628.666013,213.996906 C628.666033,218.611685 611.942272,228.136382 611.942272,228.136382 C611.942272,228.136382 615.096514,216.86841 615.096475,206.289944 C615.096437,195.711477 607.292918,180.942762 593.831132,180.942757 C580.369346,180.942753 559.468407,198.338377 553.408243,242.146463 C553.408233,242.146458 357.127246,281.624262 357.127246,281.624262 C357.127246,281.624262 361.995777,212.402515 318.365292,210.459817 C274.734808,208.517119 257.226975,255.60351 254.916828,272.064114 C252.606681,288.524719 245.015791,294.225182 245.015791,294.225182 C245.015791,294.225182 214.507988,301.250611 190.381657,300.078964 C166.255326,298.907316 135.965797,298.907321 135.965797,298.907321 Z" id="Path-341" stroke="#232323" fill="#FFFFFF" sketch:type="MSShapeGroup"></path>
                    <path d="M156.82445,224.363506 C156.82445,224.363506 151.036099,228.15814 147.902466,229.173254 C144.768832,230.188368 92.7610349,220.39136 84.797831,217.124799 C76.834627,213.858238 79.3907404,199.465566 79.3907404,199.465566 C79.3907404,199.465566 87.4788389,182.63234 90.7476965,180.991031 C90.7476965,180.991031 138.229238,199.465566 236.737264,186.63303 C243.561387,185.711578 248.90557,186.73472 246.349452,190.457993 C243.793334,194.181266 238.043488,205.118834 231.61283,209.073466 C205.82444,220.656289 156.82445,224.363506 156.82445,224.363506 Z" id="Path-342" stroke="#232323" fill="#FFFFFF" sketch:type="MSShapeGroup"></path>
                    <path d="M189,137.639505 C189,137.639505 268.437296,142.858488 320.021526,148.820628 C324.347788,148.820628 340.176377,144.831941 352.278661,132.344072 C364.380946,119.856203 382.760294,98.9962696 405,82.5970518 C405,82.5970517 367.498854,79.7488789 334.653948,79.7488789 C301.809041,79.7488789 288.060621,82.1525804 288.060621,82.1525804 C288.060621,82.1525804 266.497743,91.5487064 209.791369,129.813252 C204.434866,134.516648 189,137.639505 189,137.639505 Z" id="Path-342" stroke="#232323" fill="#FFFFFF" sketch:type="MSShapeGroup"></path>
                    <path d="M364.0201,149.895793 C364.0201,149.895793 361.858728,138.763353 402.361647,102.54539 C436.945471,74.9732581 463.803263,80.1312617 463.803263,80.1312617 C463.803263,80.1312617 471,127.875337 471,144.114138 C471,144.114139 398.066167,157.398637 381.043134,159.056002 C364.0201,160.713367 364.0201,149.895793 364.0201,149.895793 Z" id="Path-343" stroke="#232323" fill="#FFFFFF" sketch:type="MSShapeGroup"></path>
                    <path d="M490.090613,140.304933 C490.090613,140.304933 553.922198,132.161332 558.129907,128.680124 C562.337616,125.198917 558.129907,110.353011 558.129907,110.353011 C558.129907,110.353011 539.565984,86.2090383 529.424645,81.3319631 C519.283306,76.454888 499.554215,78.1366996 478,78.1366995 C485.239019,92.9068884 490.090613,140.304933 490.090613,140.304933 Z" id="Path-344" stroke="#232323" fill="#FFFFFF" sketch:type="MSShapeGroup"></path>
                    <path d="M71.7085023,228.392653 C69.5963072,232.665436 72.4118191,261.773107 77.4349774,268.515965 C82.4581357,275.258824 130.958046,291.184479 167,288.569254 C167,283.824148 147.781609,247.347529 141.950524,244.249601 C136.119439,241.151674 124.061245,239.262264 102.186502,234.466951 C80.3117594,229.671638 73.2412288,225.292083 71.7085023,228.392653 Z" id="Path-345" stroke="#232323" fill="#FFFFFF" sketch:type="MSShapeGroup"></path>
                    <path d="M622.83823,130.843049 L616.702586,133.099492 C616.702586,133.099492 615,136.538942 615,138.008793 C615,139.478643 626.262597,153.202591 628.401866,161.10326 L629.888672,159.968749 L631.179366,154.749943 L633,151.134111 L632.090163,141.382322 L630.45092,137.318408 L622.83823,130.843049 Z" id="Path-346" stroke="#232323" fill="#FFFFFF" sketch:type="MSShapeGroup"></path>
                    <path d="M341,75.0179372 L423,17.3004484" id="Path-351" stroke="#232323" fill="#FFFFFF" sketch:type="MSShapeGroup"></path>
                    <path d="M275,231.139013 L243.657662,216.297776 L231,211.269058" id="Path-352" stroke="#232323" fill="#FFFFFF" sketch:type="MSShapeGroup"></path>
                    <path d="M228,185.991702 C228,185.991702 229.280975,180.629183 240.453398,175.117854 C251.625822,169.606525 311.000776,149.434898 320.370833,148.331838 C329.74089,147.228777 341.130873,143.422839 351.022322,133.996358 C360.913772,124.569878 381.525646,97.4153761 410.914917,79.6342089 C440.304187,61.8530416 493.827543,67.2828786 493.827543,67.2828786 C493.827543,67.2828786 522.313754,67.1446972 535.789307,75.0511777 C549.264859,82.9576583 563.258053,100.806146 565.810624,104.85505 C568.363196,108.903955 569.849539,130.625076 571.388397,133.599529 C572.927254,136.573981 574.999695,141.442234 574.999695,143.130532 C574.999695,144.81883 575.053147,166.162609 573.745915,170.640231 C572.438683,175.117854 544.328512,224.852685 543.136624,229.590727 C541.944736,234.328769 535.185392,239.639912 531.618168,240.882663 C528.050945,242.125413 368.969095,269.932735 368.969095,269.932735" id="Path-353" stroke="#232323" sketch:type="MSShapeGroup"></path>
                    <path d="M351,134.627803 C351,134.627803 354.191729,138.990211 355.324248,144.140558 C356.456767,149.290906 362.466165,185.975637 363.838346,195.152346 C365.210526,204.329056 366.093985,230.411534 366.093985,238.118485 C366.093985,245.825435 369,278.44843 369,278.44843" id="Path-354" stroke="#232323" fill="#FFFFFF" sketch:type="MSShapeGroup"></path>
                    <path d="M467,67.4484305 C467,67.4484305 478.675823,104.277351 482.046612,143.167895 C486.924141,143.167895 481.130657,250.06278 481.130657,250.06278" id="Path-355" stroke="#232323" fill="#FFFFFF" sketch:type="MSShapeGroup"></path>
                    <path d="M105.604405,193.827439 C107.839346,192.585904 115.744757,193.487463 118.621665,196.677184 C121.498573,199.866906 107.024129,214.107623 107.024129,214.107623 C107.024129,214.107623 103.272067,213.447252 102.259718,212.257336 C101.247368,211.067421 103.369463,195.068974 105.604405,193.827439 Z" id="Path-441" stroke="#232323" fill="#FFFFFF" sketch:type="MSShapeGroup"></path>
                    <path d="M156.992714,223.775856 C156.992714,223.775856 155,214.708621 155,210.711043 C155,206.713464 172,190.452915 172,190.452915" id="Path-442" stroke="#232323" fill="#FFFFFF" sketch:type="MSShapeGroup"></path>
                    <path d="M83.1597948,234.945852 C83.1733085,233.888524 84.0158718,233.224503 85.0512557,233.464936 L121.133008,241.843694 C122.164119,242.083135 122.982242,243.135429 122.960407,244.190625 L122.741438,254.772713 C122.719571,255.829447 121.872615,256.493155 120.840193,256.252933 L84.8616517,247.881522 C83.8334898,247.642292 83.0109747,246.589685 83.0244688,245.533895 L83.1597948,234.945852 Z" id="Path-443" stroke="#232323" fill="#FFFFFF" sketch:type="MSShapeGroup"></path>
                    <path d="M168,266.459705 C168,266.459705 177.353291,286.231906 185.066453,288.505435 C192.779616,290.778963 215.716296,289.803473 218.724904,287.58748 C221.733512,285.371487 232.614364,266.006395 230.796547,263.913319 C228.978731,261.820243 210.560543,265.83989 201.436108,265.83989 C192.311672,265.83989 168,266.459705 168,266.459705 Z" id="Path-445" stroke="#232323" fill="#FFFFFF" sketch:type="MSShapeGroup"></path>
                    <path d="M191.392622,269.970231 C191.392622,269.970231 200,268.78206 200,279.782683 C200,290.783307 187.773469,289.729782 185.132325,287.162177 C182.491181,284.594572 180.303841,278.632966 183.846167,274.062521 C187.388493,269.492076 191.392622,269.970231 191.392622,269.970231 Z" id="Path-446" stroke="#232323" fill="#FFFFFF" sketch:type="MSShapeGroup"></path>
                    <path d="M384,122.327354 L387,158.282511" id="Path-447" stroke="#232323" fill="#FFFFFF" sketch:type="MSShapeGroup"></path>
                    <g id="Path-448">
                        <use stroke="#000000" stroke-width="1" fill="#FFFFFF" sketch:type="MSShapeGroup" xlink:href="#path-1"></use>
                        <use stroke="none" fill="none" xlink:href="#path-1"></use>
                    </g>
                    <path d="M382.757204,142.169228 C382.757204,142.169228 381.249689,139.490903 379.627025,140.554734 C378.004361,141.618566 376.624896,144.968979 377.092252,148.170483 C377.748171,152.663688 381.579302,154.497758 381.579302,154.497758 C381.579302,154.497758 384,154.026507 384,153.064238" id="Path-450" stroke="#232323" fill="#FFFFFF" sketch:type="MSShapeGroup"></path>
                    <path d="M380,143.019989 C380,143.019989 383.071681,143.936909 385.086097,141.878814 C387.100513,139.820719 384.846575,134.66463 388.520803,131.22573 C392.195031,127.786831 410.291094,131.67153 414.320862,135.514634 C418.35063,139.357738 420.249963,148.604697 418.111108,151.237902 C415.972253,153.871106 409.796592,154.497759 404.648296,154.497758 C399.499999,154.497757 389.458774,152.833468 385.753203,153.296901 C382.047631,153.760334 380.011228,153.819563 380.011228,153.819563" id="Path-449" stroke="#232323" fill="#FFFFFF" sketch:type="MSShapeGroup"></path>
                    <path d="M458,176.431241 C458,177.804327 460.755145,181.224902 467.5,179.629713 C474.244855,178.034523 477,174.635529 477,171.897451 C477,169.159372 476.826899,166.208181 473.87066,166.208181 C470.91442,166.208181 467.057217,164.843188 462.952262,167.457627 C458.847306,170.072065 458,175.058155 458,176.431241 Z" id="Path-451" stroke="#232323" fill="#FFFFFF" sketch:type="MSShapeGroup"></path>
                    <path d="M550,162.72023 C550,163.910237 552.465129,166.874736 558.5,165.492238 C564.534871,164.109741 567,161.163946 567,158.790944 C567,156.417943 566.845121,153.860245 564.200064,153.860245 C561.555007,153.860245 558.103826,152.677251 554.430971,154.943097 C550.758116,157.208943 550,161.530222 550,162.72023 Z" id="Path-451-Copy" stroke="#232323" fill="#FFFFFF" sketch:type="MSShapeGroup"></path>
                    <path d="M459,176.26009 C459,176.26009 475.689532,173.259958 477,172.475336" id="Path-452" stroke="#232323" fill="#FFFFFF" sketch:type="MSShapeGroup"></path>
                    <path d="M550,162.067265 C550,162.067265 564.83514,159.817166 566,159.2287" id="Path-452-Copy" stroke="#232323" fill="#FFFFFF" sketch:type="MSShapeGroup"></path>
                    <path d="M68,240.600897 C68,240.600897 81.2071286,257.051296 156.025769,262.695245 C182.894896,264.722119 235.447972,261.526891 259,256.126966" id="Path-444" stroke="#232323" sketch:type="MSShapeGroup"></path>
                </g>
            </g>
        </g>
    </g>
</svg>