<?xml version="1.0" encoding="UTF-8" standalone="no"?>
<svg width="28px" height="23px" viewBox="0 0 28 23" version="1.1" xmlns="http://www.w3.org/2000/svg" xmlns:xlink="http://www.w3.org/1999/xlink" xmlns:sketch="http://www.bohemiancoding.com/sketch/ns">
    <!-- Generator: Sketch 3.3.2 (12043) - http://www.bohemiancoding.com/sketch -->
    <title>twitter</title>
    <desc>Created with Sketch.</desc>
    <defs></defs>
    <g id="Page-1" stroke="none" stroke-width="1" fill="none" fill-rule="evenodd" sketch:type="MSPage">
        <g id="decorstudio" sketch:type="MSArtboardGroup" transform="translate(-709.000000, -2327.000000)" fill="#000000">
            <path d="M736.99825,2329.93975 C735.96575,2330.39475 734.86325,2330.7045 733.6995,2330.8445 C734.88425,2330.13225 735.796,2329.007 736.22475,2327.6665 C735.11525,2328.32275 733.885,2328.8005 732.576,2329.05775 C731.5295,2327.94125 730.0385,2327.24475 728.383,2327.24475 C725.212,2327.24475 722.6395,2329.81375 722.6395,2332.98475 C722.6395,2333.43625 722.692,2333.87725 722.78825,2334.29725 C718.01425,2334.05575 713.781,2331.77025 710.94775,2328.29825 C710.45075,2329.1435 710.17075,2330.1305 710.17075,2331.18575 C710.17075,2333.18075 711.18575,2334.936 712.72575,2335.96675 C711.78425,2335.937 710.897,2335.678 710.1235,2335.24925 L710.1235,2335.31925 C710.1235,2338.10175 712.101,2340.42575 714.73125,2340.95425 C714.24825,2341.08375 713.74075,2341.15375 713.2175,2341.15375 C712.85,2341.15375 712.4895,2341.11875 712.13775,2341.05225 C712.86925,2343.33425 714.99025,2344.995 717.505,2345.04225 C715.538,2346.58225 713.06,2347.49925 710.37025,2347.49925 C709.9065,2347.49925 709.44975,2347.473 709,2347.4205 C711.54275,2349.048 714.5615,2350 717.806,2350 C728.3725,2350 734.151,2341.25 734.151,2333.6585 C734.151,2333.40825 734.144,2333.1615 734.1335,2332.91475 C735.2535,2332.1045 736.23,2331.09475 737,2329.93975 L736.99825,2329.93975 Z" id="twitter" sketch:type="MSShapeGroup"></path>
        </g>
    </g>
</svg>